<svg width="35" height="35" viewBox="0 0 35 35" fill="none" xmlns="http://www.w3.org/2000/svg">
<path d="M12.5013 13.8791C13.0708 14.0689 13.6603 13.6333 13.6603 13.0289V7.36485C13.6604 7.24212 13.6947 7.12185 13.7594 7.01754C13.8241 6.91324 13.9166 6.82902 14.0264 6.77434C14.1363 6.71966 14.2593 6.69668 14.3815 6.70798C14.5037 6.71928 14.6203 6.76441 14.7183 6.83831L27.5201 16.4678C27.6016 16.5293 27.6677 16.6088 27.7132 16.7002C27.7588 16.7916 27.7825 16.8923 27.7825 16.9944C27.7825 17.0965 27.7588 17.1972 27.7132 17.2885C27.6677 17.3799 27.6016 17.4594 27.5201 17.5209L14.7173 27.1514C14.6194 27.2257 14.5027 27.2712 14.3804 27.2827C14.258 27.2942 14.1349 27.2713 14.0249 27.2165C13.9149 27.1618 13.8223 27.0774 13.7577 26.9728C13.6931 26.8683 13.659 26.7478 13.6593 26.6249V21.4774C13.6593 20.6132 13.0628 19.8718 12.2235 19.654C8.47979 18.6886 5.04498 16.7822 2.24531 14.1159C1.66782 13.5664 0.69468 13.8142 0.577783 14.6015C0.453984 15.436 0.392534 16.2786 0.393945 17.1223C0.393945 26.529 8.01923 34.1523 17.4239 34.1523C26.8287 34.1523 34.4539 26.529 34.4539 17.1223C34.4539 7.71554 26.8297 0.0922546 17.4239 0.0922546C14.2847 0.0922546 11.3433 0.941507 8.81753 2.4232C7.73848 3.05764 7.16498 4.26358 7.16498 5.51648V6.73241C7.16498 9.77972 9.00536 12.5653 11.8558 13.6463L12.1806 13.7672L12.5013 13.8791Z" fill="#040D21"/>
</svg>
