<svg width="35" height="35" viewBox="0 0 35 35" fill="none" xmlns="http://www.w3.org/2000/svg">
<path d="M12.5013 14.5069C13.0708 14.6967 13.6603 14.2611 13.6603 13.6566V7.9926C13.6604 7.86986 13.6947 7.7496 13.7594 7.64529C13.8241 7.54099 13.9166 7.45677 14.0264 7.40209C14.1363 7.34741 14.2593 7.32443 14.3815 7.33573C14.5037 7.34703 14.6203 7.39216 14.7183 7.46606L27.5201 17.0956C27.6016 17.157 27.6677 17.2366 27.7132 17.328C27.7588 17.4193 27.7825 17.52 27.7825 17.6221C27.7825 17.7242 27.7588 17.8249 27.7132 17.9163C27.6677 18.0076 27.6016 18.0872 27.5201 18.1487L14.7173 27.7792C14.6194 27.8535 14.5027 27.8989 14.3804 27.9104C14.258 27.9219 14.1349 27.899 14.0249 27.8443C13.9149 27.7895 13.8223 27.7051 13.7577 27.6006C13.6931 27.496 13.659 27.3755 13.6593 27.2526V22.1052C13.6593 21.2409 13.0628 20.4996 12.2235 20.2818C8.47979 19.3164 5.04498 17.41 2.24531 14.7436C1.66782 14.1941 0.69468 14.4419 0.577783 15.2292C0.453984 16.0638 0.392534 16.9063 0.393945 17.75C0.393945 27.1567 8.01923 34.78 17.4239 34.78C26.8287 34.78 34.4539 27.1567 34.4539 17.75C34.4539 8.34329 26.8297 0.720001 17.4239 0.720001C14.2847 0.720001 11.3433 1.56925 8.81753 3.05095C7.73848 3.68539 7.16498 4.89133 7.16498 6.14422V7.36015C7.16498 10.4075 9.00536 13.193 11.8558 14.2741L12.1806 14.395L12.5013 14.5069Z" fill="white"/>
</svg>
