<svg width="231" height="95" viewBox="0 0 231 95" fill="none" xmlns="http://www.w3.org/2000/svg">
<path d="M219.667 0.710114C219.938 0.710114 220.207 0.72411 220.474 0.742104C226.176 1.15599 230.677 5.91263 230.679 11.719C230.679 14.8021 229.41 17.5873 227.368 19.5867L220.471 14.4002C221.25 14.1095 222.013 13.7784 222.757 13.4085C223.736 12.9373 224.516 12.3031 225.096 11.506C225.694 10.7089 225.993 9.88416 225.993 9.03173L226.101 7.21025H222.894L222.812 8.59786C222.704 9.54026 222.196 10.365 221.289 11.0722C220.401 11.7613 219.368 12.1055 218.191 12.1049L217.646 12.0779L217.629 0.902059C218.009 0.831412 218.394 0.780427 218.786 0.749102C219.076 0.724443 219.37 0.711446 219.667 0.710114Z" fill="white"/>
<path d="M41.3127 12.812C40.265 13.8597 39.7401 15.1183 39.7401 16.6069C39.7401 18.0332 40.2643 19.2705 41.3127 20.3188C42.3624 21.3685 43.62 21.8924 45.1086 21.8924C46.5972 21.8924 47.8558 21.3675 48.9045 20.3188C49.9535 19.2705 50.4777 18.0332 50.477 16.6069C50.477 15.1183 49.9532 13.8597 48.9045 12.812C47.8558 11.7623 46.5982 11.2384 45.1086 11.2384C43.619 11.2384 42.3614 11.7643 41.3127 12.812Z" fill="white"/>
<path d="M1.11316 11.9929V71.4071H8.20101V53.7478H10.5083C15.3109 53.7478 19.1487 55.0474 22.0638 57.6477C24.9789 60.248 26.7194 63.7931 27.2642 68.2809L27.6841 71.4051H35.1078L34.8559 68.7838C34.8559 67.904 34.7929 67.1692 34.646 66.6033C34.4556 65.7613 34.253 64.9221 34.0382 64.086C32.9265 60.479 31.459 57.5637 29.6135 55.3413C27.7687 53.1179 25.5248 51.461 22.8816 50.3707C27.6631 48.1682 30.7242 45.463 32.0458 42.2548C33.3674 39.0467 34.1221 36.6763 34.3531 35.1247L34.9399 31.6426H27.5791L27.0763 34.3899C26.5724 36.8652 25.3978 39.1506 23.5524 41.2271C21.7069 43.3035 19.5676 44.8131 17.1353 45.8199C14.724 46.8056 12.3967 47.3095 10.1944 47.3095H8.223L8.13903 11.9919L1.11316 11.9929Z" fill="white"/>
<path d="M48.5722 31.623H41.4843V71.3846H48.5722V31.623Z" fill="white"/>
<path d="M55.2186 11.9931V71.4073H62.3065V53.747H64.6128C69.3943 53.747 73.2532 55.0477 76.1683 57.648C79.0834 60.2483 80.8239 63.7933 81.3687 68.2811L81.7886 71.4053H89.2123L88.9604 68.784C88.9604 67.9042 88.8764 67.1694 88.7505 66.6036C88.5602 65.7615 88.3576 64.9223 88.1426 64.0863C87.031 60.4792 85.5634 57.564 83.718 55.3416C81.8725 53.1182 79.6286 51.4613 76.986 50.3709C81.7886 48.1685 84.8296 45.4632 86.1502 42.2551C87.4718 39.0459 88.2266 36.6765 88.4575 35.1249L89.0444 31.6429H81.6836L81.1798 34.3901C80.6769 36.8655 79.5023 39.1509 77.6568 41.2273C75.8114 43.3038 73.673 44.8134 71.2398 45.8201C68.8285 46.8058 66.5012 47.3097 64.2989 47.3097H62.3065L62.2225 11.9921L55.2186 11.9931Z" fill="white"/>
<path d="M130.65 43.2415L108.882 60.3966L104.668 55.531L121.486 42.0669C119.284 39.1097 116.243 37.6421 112.342 37.6421C109.49 37.6421 106.848 38.5019 104.458 40.2004C102.066 41.8999 100.369 43.7024 99.3821 45.6108C98.3964 47.5203 97.8926 49.5327 97.8926 51.6721C97.8926 55.9709 99.4661 59.3259 102.591 61.7792C105.715 64.2335 108.777 65.4502 111.756 65.4502C115.656 65.4502 118.425 64.5484 120.039 62.7659C121.675 60.9835 122.598 59.9348 122.849 59.6198C123.101 59.3259 123.394 58.8861 123.709 58.3402L129.498 61.9692C127.841 65.0513 125.429 67.5056 122.284 69.3091C119.117 71.1126 115.614 72.0353 111.756 72.0353C109.176 72.0353 106.261 71.4895 103.052 70.3788C99.843 69.2881 97.0338 66.9597 94.6845 63.4577C92.3152 59.9348 91.1405 56.0129 91.1405 51.6511C91.1405 49.9946 91.3085 48.4001 91.6444 46.8275C91.9803 45.255 92.755 43.2205 93.9507 40.6823C95.1673 38.145 97.3897 35.8806 100.641 33.8462C103.891 31.8118 107.54 30.7841 111.609 30.7841C115.949 30.7841 119.808 31.8958 123.206 34.1191C126.561 36.3625 129.036 39.4036 130.65 43.2415Z" fill="white"/>
<path d="M137.236 46.4707V71.4266H144.325V45.422C144.66 43.2207 145.479 41.5012 146.799 40.2635C148.1 39.0259 149.862 38.397 152.042 38.397H153.888V31.622H152.001C149.925 31.622 147.911 32.0619 145.982 32.9436C144.052 33.8233 142.123 35.3549 140.172 37.5573C138.201 39.7597 137.236 42.7378 137.236 46.4707Z" fill="white"/>
<path d="M158.836 16.6068C158.836 15.1182 159.36 13.8596 160.408 12.8119C161.457 11.7622 162.716 11.2383 164.204 11.2383C165.693 11.2383 166.951 11.7632 168 12.8109C169.049 13.8606 169.573 15.1182 169.573 16.6068C169.573 18.033 169.049 19.2703 168 20.3187C166.951 21.3684 165.694 21.8923 164.204 21.8923C162.716 21.8923 161.457 21.3674 160.408 20.3187C159.36 19.2703 158.836 18.033 158.836 16.6068Z" fill="white"/>
<path d="M160.576 31.6229H167.665V71.3845H160.576V31.6229Z" fill="white"/>
<path d="M174.269 11.9931H181.295L181.379 47.3097H183.351C185.552 47.3097 187.88 46.8068 190.313 45.8211C192.773 44.8087 194.963 43.2361 196.709 41.2283C198.554 39.1519 199.729 36.8665 200.232 34.3911L200.735 31.6438H208.096L207.53 35.1259C207.299 36.6775 206.545 39.0469 205.223 42.256C203.901 45.4652 200.84 48.1695 196.059 50.3719C198.701 51.4616 200.945 53.1185 202.791 55.3426C204.636 57.566 206.104 60.4809 207.194 64.0872L207.195 64.0932C207.466 65.1819 207.677 66.0177 207.802 66.6046C207.949 67.1704 208.012 67.9042 208.012 68.785L208.264 71.4063H200.84L200.42 68.2821C199.876 63.7933 198.135 60.2492 195.22 57.6489C192.305 55.0486 188.446 53.749 183.665 53.749H181.337V71.4063H174.269V11.9931Z" fill="white"/>
<path d="M217.611 19.1718C217.611 19.2398 217.595 19.307 217.565 19.3677C217.534 19.4285 217.49 19.4811 217.435 19.5213C217.38 19.5615 217.316 19.5881 217.249 19.599C217.182 19.6098 217.113 19.6046 217.049 19.5837C216.944 19.5481 216.839 19.5108 216.736 19.4718C215.355 18.9479 214.463 17.5983 214.463 16.1227V2.01675C212.819 2.89883 211.425 4.18463 210.414 5.7533C209.403 7.32197 208.807 9.122 208.683 10.9842C208.668 11.2281 208.656 11.474 208.656 11.72C208.656 11.9293 208.662 12.1369 208.675 12.3428C208.945 17.1964 212.359 21.2093 216.915 22.3819C217.112 22.4314 217.287 22.5449 217.413 22.7046C217.539 22.8644 217.609 23.0613 217.611 23.2647V25.758C217.611 25.8173 217.627 25.8754 217.659 25.9258C217.69 25.9762 217.735 26.0169 217.788 26.0433C217.841 26.0698 217.9 26.0809 217.959 26.0756C218.019 26.0702 218.075 26.0485 218.122 26.0129L224.324 21.3482C224.363 21.3184 224.395 21.2799 224.417 21.2356C224.439 21.1914 224.45 21.1427 224.45 21.0933C224.45 21.0439 224.439 20.9952 224.417 20.951C224.395 20.9067 224.363 20.8682 224.324 20.8384L218.122 16.1737C218.075 16.1381 218.019 16.1164 217.959 16.111C217.9 16.1057 217.841 16.1168 217.788 16.1433C217.735 16.1697 217.69 16.2104 217.659 16.2608C217.627 16.3112 217.611 16.3693 217.611 16.4286V19.1718Z" fill="white"/>
<path d="M213.928 31.623H221.017V71.3846H213.928V31.623Z" fill="white"/>
<path d="M4.00681 92.0006C2.86845 91.9891 1.75096 91.6936 0.755737 91.1409L1.46853 89.6513C2.37028 90.1132 3.12506 90.4281 4.08978 90.4281C5.18047 90.4281 5.7683 89.9662 5.7683 89.1285C5.7683 88.5196 5.36942 88.1207 4.50866 87.8908L3.46096 87.5969C2.51723 87.345 1.9304 86.9671 1.5735 86.3802C1.31311 85.9426 1.17565 85.4429 1.17562 84.9337C1.17562 83.1932 2.58022 81.9765 4.59364 81.9765C5.7683 81.9765 6.94297 82.3334 7.78073 82.9412L6.87899 84.3258C6.01923 83.801 5.36942 83.591 4.65662 83.591C3.88084 83.591 3.31401 84.0529 3.31401 84.6817C3.31401 85.1856 3.56593 85.4155 4.36371 85.6464L5.51638 85.9614C7.08893 86.3812 7.92769 87.387 7.92769 88.8135C7.94868 90.722 6.39712 92.0006 4.00581 92.0006" fill="white"/>
<path d="M10.6555 90.931C10.8655 91.5398 11.5993 91.9587 12.543 91.9587C13.0039 91.9587 13.4867 91.8537 14.0316 91.6448L13.8016 90.5541C13.4867 90.6591 13.3188 90.7011 13.1508 90.7011C12.521 90.7011 12.354 90.4701 12.354 89.5684V86.0454H13.7796V84.7868H12.354C12.354 84.074 12.396 83.2972 12.459 82.6474L10.5926 83.1092C10.5296 83.6331 10.5296 84.074 10.5296 84.7648L9.83777 84.7658V86.0244H10.5296V89.8413C10.5296 90.4911 10.5496 90.6381 10.6555 90.931Z" fill="white"/>
<path d="M19.7553 86.3593C19.5912 86.2588 19.4017 86.2078 19.2094 86.2123C18.7905 86.2123 18.4336 86.4023 18.0777 86.8002V91.7708H16.2323V87.0721C16.2323 86.1294 16.1273 85.4156 15.9803 85.0177L17.6369 84.5778C17.8048 84.8707 17.8888 85.1856 17.9308 85.5835C18.3287 85.0387 18.8955 84.5768 19.5873 84.5768C19.8602 84.5768 19.9862 84.5978 20.2791 84.7238L19.7553 86.3593Z" fill="white"/>
<path fill-rule="evenodd" clip-rule="evenodd" d="M25.8367 91.2879C26.0047 91.6448 26.4026 91.9587 26.8225 92.1476L27.8082 90.994C27.2004 90.5121 27.1374 90.1972 27.1584 89.4214L27.1993 87.0521C27.2203 86.2963 27.1794 86.0874 27.0744 85.7925C26.8015 85.0177 25.9837 84.5768 24.809 84.5768C24.1592 84.5768 23.5714 84.7028 22.8796 84.9967C22.3977 85.2066 22.1248 85.3526 21.7469 85.5835L22.5227 86.9051C23.2785 86.4013 23.9703 86.1084 24.5571 86.1084C25.2289 86.1084 25.3759 86.3803 25.3759 87.1561V87.45C25.2366 87.4335 25.0962 87.4268 24.956 87.43C22.7116 87.43 21.58 88.1838 21.58 89.8413C21.58 91.2459 22.4187 92.0427 23.9913 92.0427C24.5781 92.0427 25.081 91.9167 25.4169 91.6658C25.5627 91.5465 25.7028 91.4204 25.8367 91.2879ZM23.5304 89.7783C23.5304 88.9386 23.9703 88.7086 25.2499 88.7086H25.3339L25.3129 90.2182C25.04 90.5121 24.6831 90.7011 24.3482 90.7011C23.8653 90.7011 23.5304 90.3232 23.5304 89.7783Z" fill="white"/>
<path d="M32.2969 91.9587C31.3532 91.9587 30.6194 91.5388 30.4094 90.931C30.3045 90.6381 30.2835 90.4911 30.2835 89.8413V86.0244H29.5917V84.7658H30.2835C30.2835 84.074 30.2835 83.6331 30.3465 83.1092L32.2129 82.6474C32.1499 83.2972 32.108 84.074 32.108 84.7868H33.5345V86.0454H32.107V89.5684C32.107 90.4701 32.2749 90.7011 32.9037 90.7011C33.0717 90.7011 33.2396 90.6591 33.5535 90.5541L33.7845 91.6438C33.2606 91.8537 32.7778 91.9587 32.2949 91.9587" fill="white"/>
<path fill-rule="evenodd" clip-rule="evenodd" d="M37.5392 88.9186V88.8556H41.628V88.4357C41.628 86.9681 41.3351 86.0034 40.6843 85.3526C40.2234 84.8917 39.4676 84.6188 38.6499 84.6188C37.7061 84.6188 37.0143 84.9127 36.4275 85.5625C35.7977 86.2543 35.5468 87.0941 35.5468 88.3517C35.5468 90.5751 36.8674 92.0007 38.8808 92.0007C39.8665 92.0007 40.7053 91.6658 41.523 91.015L40.8103 89.9253C40.2444 90.3862 39.6566 90.6171 39.0278 90.6171C38.084 90.6171 37.5382 90.0083 37.5382 88.9176M39.4876 86.3793C39.6346 86.6312 39.6976 86.9041 39.6976 87.429H39.7186V87.512H37.5792V87.492C37.5792 86.5053 37.9791 85.9604 38.6699 85.9604C39.0478 85.9604 39.2997 86.1074 39.4886 86.3803" fill="white"/>
<path fill-rule="evenodd" clip-rule="evenodd" d="M49.6807 86.8212V89.6304C49.6807 90.4731 49.7037 90.953 49.7217 91.3389C49.7337 91.5968 49.7437 91.8117 49.7437 92.0637C49.7437 94.1611 48.3601 94.7899 46.5566 94.7899C45.5289 94.7899 44.6062 94.58 43.9564 94.266L44.2703 92.8185C44.8371 93.0494 45.7179 93.3223 46.5356 93.3223C47.4794 93.3223 47.9612 92.9024 47.9612 92.2106C47.9612 91.9587 47.9412 91.5608 47.9193 91.3299C47.5844 91.7078 47.1015 91.9167 46.5566 91.9167C44.4382 91.9167 43.5995 90.2602 43.5995 88.3937C43.5995 87.1361 43.8514 85.7725 45.0041 85.0597C45.4549 84.769 45.9774 84.6092 46.5137 84.5978C47.2484 84.5978 48.0032 84.9337 48.1712 85.3116C48.1912 85.0597 48.2132 84.9757 48.3181 84.7658H49.8487C49.7227 85.2906 49.6807 85.9824 49.6807 86.8212ZM47.9412 86.5912C47.6883 86.3173 47.2904 86.1084 46.8915 86.1084C46.5986 86.1084 46.2837 86.2543 46.0948 86.4223C45.6969 86.8212 45.6549 87.513 45.6549 88.1418C45.6549 89.0445 45.6549 90.4281 46.8915 90.4281C47.3114 90.4281 47.7313 90.1552 47.9412 89.8823V86.5912Z" fill="white"/>
<path d="M52.5349 86.0244V91.8128H54.3804V84.7658H51.4862V86.0244H52.5349Z" fill="white"/>
<path d="M52.2596 82.6686C52.2596 83.2986 52.7846 83.8016 53.3936 83.8016C54.0226 83.8016 54.5256 83.2986 54.5256 82.6686C54.5256 82.0396 54.0226 81.5356 53.4146 81.5356C52.7846 81.5356 52.2596 82.0396 52.2596 82.6686Z" fill="white"/>
<path fill-rule="evenodd" clip-rule="evenodd" d="M59.0333 88.8556V88.9186C59.0333 90.0083 59.5792 90.6171 60.5229 90.6171C61.1517 90.6171 61.7385 90.3862 62.3054 89.9253L63.0182 91.015C62.2004 91.6648 61.3617 92.0007 60.3759 92.0007C58.3625 92.0007 57.0409 90.5751 57.0409 88.3517C57.0409 87.0941 57.2928 86.2543 57.9216 85.5625C58.5095 84.9127 59.2013 84.6188 60.145 84.6188C60.9628 84.6188 61.7176 84.8917 62.1794 85.3526C62.8292 86.0024 63.1232 86.9681 63.1232 88.4357V88.8556H59.0333ZM61.1927 87.429C61.1927 86.9051 61.1307 86.6322 60.9838 86.3803C60.7948 86.1084 60.5439 85.9604 60.166 85.9604C59.4742 85.9604 59.0753 86.5063 59.0753 87.492V87.513H61.2147V87.429H61.1927Z" fill="white"/>
<path d="M78.3274 90.638C79.1241 91.5397 80.1309 91.9586 81.4515 91.9586C82.5422 91.9586 83.3609 91.6867 84.0937 91.0359L83.214 89.8202C82.6471 90.2601 82.1443 90.4281 81.5774 90.4281C80.7387 90.4281 80.1099 90.0502 79.732 89.3584C79.4381 88.8345 79.3341 88.0997 79.3341 86.7991C79.3341 85.6884 79.501 84.8916 79.8789 84.3468C80.2148 83.8429 80.8437 83.528 81.4935 83.528C82.0393 83.528 82.5432 83.718 83.025 84.0739L83.8848 82.7742C83.3599 82.3124 82.4162 82.0185 81.4725 82.0185C79.9419 82.0185 78.5573 82.8582 77.8235 84.2418C77.3836 85.0806 77.1737 86.0243 77.1737 87.219C77.1737 88.6246 77.5516 89.7782 78.3274 90.638Z" fill="white"/>
<path fill-rule="evenodd" clip-rule="evenodd" d="M91.0148 90.973C90.469 91.5818 89.7772 91.9587 88.6865 91.9587C86.778 91.9587 85.5194 90.5331 85.5194 88.3098C85.5194 86.0874 86.779 84.6188 88.6865 84.6188C89.6932 84.6188 90.469 84.9547 91.0778 85.6685C91.6437 86.3183 91.8956 87.0941 91.8956 88.2478C91.8956 89.4634 91.6227 90.2812 91.0148 90.973ZM89.5053 86.3593C89.41 86.2396 89.2885 86.1434 89.1502 86.0781C89.0119 86.0127 88.8604 85.98 88.7075 85.9824C88.2676 85.9824 87.9107 86.2543 87.7638 86.6952C87.6378 87.0731 87.5748 87.555 87.5748 88.2678C87.5748 89.0855 87.6588 89.6944 87.8058 90.0503C87.9737 90.4281 88.3926 90.6381 88.7495 90.6381C89.5463 90.6381 89.8822 89.9253 89.8822 88.2688C89.8822 87.282 89.7572 86.6742 89.5053 86.3593Z" fill="white"/>
<path fill-rule="evenodd" clip-rule="evenodd" d="M98.2292 91.2879C98.3971 91.6448 98.795 91.9587 99.2149 92.1477L100.201 90.994C99.5928 90.5121 99.5298 90.1972 99.5508 89.4214L99.5928 87.0521C99.6128 86.2963 99.5718 86.0874 99.4668 85.7925C99.1939 85.0177 98.3761 84.5768 97.2015 84.5768C96.5517 84.5768 95.9648 84.7028 95.272 84.9967C94.7902 85.2066 94.5173 85.3526 94.1394 85.5835L94.9161 86.9052C95.6709 86.4013 96.3627 86.1084 96.9496 86.1084C97.6214 86.1084 97.7683 86.3803 97.7683 87.1561V87.45C97.629 87.4335 97.4887 87.4268 97.3484 87.43C95.1041 87.43 93.9724 88.1838 93.9724 89.8413C93.9724 91.2459 94.8112 92.0427 96.3837 92.0427C96.9705 92.0427 97.4734 91.9167 97.8103 91.6658C97.9353 91.5608 98.0812 91.4349 98.2292 91.2879ZM95.9229 89.7783C95.9229 88.9386 96.3637 88.7086 97.6424 88.7086H97.7263L97.7053 90.2182C97.4324 90.5121 97.0755 90.7011 96.7406 90.7011C96.2578 90.7011 95.9229 90.3232 95.9229 89.7783Z" fill="white"/>
<path d="M107.038 91.5188C106.535 91.8118 105.989 91.9587 105.318 91.9587C103.389 91.9587 102.256 90.6171 102.256 88.3308C102.256 86.7162 102.865 85.6465 103.704 85.0807C104.164 84.7658 104.856 84.5558 105.444 84.5558C105.905 84.5558 106.43 84.6608 106.807 84.8707C107.059 85.0177 107.185 85.1007 107.499 85.3736L106.598 86.5903C106.22 86.2543 105.821 86.0454 105.486 86.0454C104.668 86.0454 104.29 86.7582 104.29 88.4147C104.29 89.3375 104.416 89.8833 104.647 90.1972C104.835 90.4492 105.15 90.5961 105.465 90.5961C105.884 90.5961 106.283 90.4072 106.723 90.0083L106.828 89.9033L107.666 91.015C107.416 91.2669 107.29 91.3719 107.038 91.5188Z" fill="white"/>
<path d="M114.084 87.073V91.8116H115.908V86.883C115.908 86.2132 115.866 85.9823 115.719 85.5834C115.509 84.9536 114.797 84.5767 113.895 84.5767C113.182 84.5767 112.385 84.8706 111.902 85.3315L111.923 84.7446V83.34C111.923 82.6682 111.881 81.9974 111.797 81.6205L109.91 82.0604C109.994 82.3543 110.057 83.0251 110.057 83.6749V91.8126H111.923V86.757C112.322 86.3792 112.909 86.1072 113.371 86.1072C113.895 86.1072 114.084 86.3802 114.084 87.073Z" fill="white"/>
<path d="M119.201 86.0244H118.152V84.7658H121.046V91.8118H119.201V86.0244Z" fill="white"/>
<path d="M120.061 83.8016C119.761 83.7997 119.474 83.6798 119.261 83.4677C119.049 83.2556 118.929 82.9685 118.928 82.6686C118.928 82.0396 119.453 81.5356 120.082 81.5356C120.69 81.5356 121.194 82.0396 121.194 82.6686C121.194 83.2986 120.69 83.8016 120.061 83.8016Z" fill="white"/>
<path d="M127.861 87.219V91.7917H129.685V86.6532C129.685 86.2133 129.643 85.8984 129.539 85.6465C129.308 85.0597 128.616 84.6398 127.84 84.6398C127.442 84.6398 126.959 84.7447 126.582 84.9337C126.333 85.0709 126.093 85.2232 125.863 85.3896L125.764 85.4575C125.759 85.1472 125.672 84.8437 125.512 84.5778L123.877 85.0377C124.045 85.5205 124.128 86.0874 124.128 86.6952V91.7917H125.973V86.8212C126.393 86.4433 126.875 86.1913 127.253 86.1913C127.715 86.1913 127.861 86.4223 127.861 87.219Z" fill="white"/>
<path fill-rule="evenodd" clip-rule="evenodd" d="M138.366 86.8212V89.6304C138.366 90.4731 138.389 90.953 138.407 91.3389C138.419 91.5968 138.429 91.8117 138.429 92.0637C138.429 94.1611 137.046 94.7899 135.242 94.7899C134.214 94.7899 133.292 94.58 132.641 94.266L132.956 92.8185C133.522 93.0494 134.403 93.3223 135.221 93.3223C136.165 93.3223 136.647 92.9024 136.647 92.2106C136.647 91.9587 136.626 91.5608 136.605 91.3299C136.27 91.7068 135.787 91.9167 135.242 91.9167C133.124 91.9167 132.285 90.2602 132.285 88.3937C132.285 87.1361 132.537 85.7725 133.69 85.0597C134.141 84.7689 134.664 84.609 135.2 84.5978C135.934 84.5978 136.689 84.9337 136.857 85.3116C136.878 85.0597 136.899 84.9757 137.004 84.7658H138.534C138.408 85.2906 138.366 85.9824 138.366 86.8212ZM136.626 86.5902C136.374 86.3173 135.976 86.1074 135.577 86.1074C135.284 86.1074 134.969 86.2543 134.78 86.4223C134.382 86.8212 134.34 87.513 134.34 88.1418C134.34 89.0435 134.34 90.4281 135.577 90.4281C135.997 90.4281 136.416 90.1552 136.626 89.8823V86.5902Z" fill="white"/>
<path d="M160.366 86.8001L160.701 91.7917H162.63L161.771 82.2494H159.317L158.017 86.9881L157.682 88.5406L157.346 87.0101L156.087 82.2494H153.634L152.732 91.7917H154.641L154.977 86.8001L155.039 85.0806L155.438 86.8201L156.78 91.7917H158.416L159.862 86.8001L160.282 85.1006L160.366 86.8001Z" fill="white"/>
<path fill-rule="evenodd" clip-rule="evenodd" d="M170.119 92.1476C169.7 91.9587 169.302 91.6448 169.134 91.2879C169 91.4204 168.86 91.5465 168.715 91.6658C168.379 91.9167 167.876 92.0427 167.288 92.0427C165.716 92.0427 164.877 91.2459 164.877 89.8413C164.877 88.1838 166.01 87.429 168.253 87.429C168.4 87.429 168.505 87.429 168.673 87.45V87.1561C168.673 86.3803 168.526 86.1084 167.855 86.1084C167.267 86.1084 166.575 86.4013 165.821 86.9051L165.045 85.5835C165.422 85.3536 165.695 85.2066 166.177 84.9967C166.869 84.7028 167.456 84.5768 168.106 84.5768C169.281 84.5768 170.098 85.0167 170.371 85.7935C170.476 86.0874 170.518 86.2963 170.497 87.0521L170.455 89.4214C170.434 90.1972 170.497 90.5111 171.105 90.994L170.119 92.1476ZM168.568 88.7086C167.288 88.7086 166.848 88.9386 166.848 89.7783C166.848 90.3232 167.183 90.7011 167.666 90.7011C168.002 90.7011 168.358 90.5111 168.631 90.2182L168.652 88.7086H168.568Z" fill="white"/>
<path d="M176.535 86.2134C176.745 86.2134 176.892 86.2543 177.08 86.3593L177.605 84.7238C177.311 84.5978 177.185 84.5768 176.913 84.5768C176.221 84.5768 175.655 85.0387 175.256 85.5835C175.214 85.1857 175.131 84.8707 174.963 84.5768L173.306 85.0167C173.452 85.4166 173.557 86.1294 173.557 87.0731V91.7708H175.403V86.8002C175.76 86.4013 176.116 86.2134 176.535 86.2134Z" fill="white"/>
<path d="M179.533 91.7916V83.8639C179.533 83.2561 179.512 82.7742 179.408 82.0394L181.254 81.5775C181.337 82.1024 181.358 82.9202 181.358 83.8639V91.7916H179.533Z" fill="white"/>
<path d="M183.771 91.7918L181.4 87.8069L183.204 84.7658H185.427L183.183 87.7019L185.951 91.7908L183.771 91.7918Z" fill="white"/>
<path fill-rule="evenodd" clip-rule="evenodd" d="M189.223 88.9186V88.8556H193.311V88.4357C193.311 86.9681 193.019 86.0034 192.368 85.3526C191.907 84.8917 191.152 84.6188 190.333 84.6188C189.39 84.6188 188.698 84.9127 188.111 85.5625C187.481 86.2543 187.23 87.0931 187.23 88.3517C187.23 90.5751 188.551 92.0007 190.564 92.0007C191.55 92.0007 192.389 91.6658 193.207 91.015L192.494 89.9253C191.928 90.3862 191.34 90.6171 190.711 90.6171C189.767 90.6171 189.223 90.0093 189.223 88.9186ZM191.173 86.3793C191.319 86.6312 191.382 86.9041 191.382 87.429H191.403V87.512H189.265V87.492C189.265 86.5053 189.663 85.9604 190.354 85.9604C190.732 85.9604 190.984 86.1064 191.173 86.3793Z" fill="white"/>
<path d="M197.8 91.9587C196.856 91.9587 196.121 91.5388 195.913 90.931C195.808 90.6381 195.787 90.4911 195.787 89.8413V86.0244H195.094V84.7657H195.787C195.787 84.0739 195.787 83.6331 195.85 83.1092L197.716 82.6473C197.653 83.2972 197.611 84.0739 197.611 84.7867H199.037V86.0454H197.611V89.5684C197.611 90.4701 197.779 90.701 198.408 90.701C198.576 90.701 198.744 90.659 199.058 90.5541L199.289 91.6438C198.765 91.8537 198.282 91.9587 197.8 91.9587Z" fill="white"/>
<path d="M201.868 86.0244V91.8128H203.713V84.7658H200.82V86.0244H201.868Z" fill="white"/>
<path d="M201.596 82.6686C201.596 83.2986 202.12 83.8016 202.728 83.8016C203.358 83.8016 203.861 83.2986 203.861 82.6686C203.861 82.0396 203.358 81.5356 202.749 81.5356C202.12 81.5356 201.596 82.0396 201.596 82.6686Z" fill="white"/>
<path d="M210.529 91.7918V87.2191C210.529 86.4223 210.382 86.1913 209.921 86.1913C209.543 86.1913 209.061 86.4433 208.641 86.8212V91.7918H206.796V86.6952C206.796 86.0874 206.712 85.5205 206.545 85.0387L208.18 84.5768C208.348 84.8707 208.432 85.1643 208.432 85.4576L208.531 85.3886C208.763 85.2276 208.974 85.0807 209.25 84.9337C209.627 84.7448 210.11 84.6398 210.508 84.6398C211.283 84.6398 211.976 85.0597 212.206 85.6465C212.311 85.8984 212.353 86.2123 212.353 86.6532V91.7918H210.529Z" fill="white"/>
<path fill-rule="evenodd" clip-rule="evenodd" d="M221.036 89.6314V86.8212C221.036 85.9814 221.078 85.2906 221.204 84.7658H219.673C219.569 84.9757 219.548 85.0597 219.527 85.3116C219.359 84.9337 218.604 84.5978 217.87 84.5978C217.333 84.609 216.81 84.7689 216.359 85.0597C215.206 85.7725 214.955 87.1351 214.955 88.3937C214.955 90.2602 215.794 91.9167 217.912 91.9167C218.457 91.9167 218.939 91.7068 219.275 91.3299C219.296 91.5598 219.317 91.9597 219.317 92.2106C219.317 92.9024 218.835 93.3223 217.891 93.3223C217.072 93.3223 216.191 93.0494 215.626 92.8185L215.311 94.2661C215.962 94.58 216.884 94.7899 217.912 94.7899C219.715 94.7899 221.099 94.1601 221.099 92.0637C221.099 91.8118 221.089 91.5968 221.077 91.3389C221.059 90.953 221.036 90.4731 221.036 89.6314ZM218.247 86.1084C218.646 86.1084 219.044 86.3183 219.296 86.5903V89.8823C219.086 90.1552 218.667 90.4282 218.247 90.4282C217.009 90.4282 217.009 89.0436 217.009 88.1418C217.009 87.513 217.051 86.8212 217.45 86.4223C217.639 86.2543 217.953 86.1084 218.247 86.1084Z" fill="white"/>
</svg>
