<svg width="231" height="95" viewBox="0 0 231 95" fill="none" xmlns="http://www.w3.org/2000/svg">
<path d="M219.667 0.0823669C219.938 0.0823669 220.207 0.0963629 220.474 0.114358C226.176 0.528239 230.677 5.28488 230.679 11.0912C230.679 14.1743 229.41 16.9595 227.368 18.959L220.471 13.7725C221.25 13.4817 222.013 13.1507 222.757 12.7807C223.736 12.3095 224.516 11.6754 225.096 10.8783C225.694 10.0812 225.993 9.25641 225.993 8.40399L226.101 6.58251H222.894L222.812 7.97011C222.704 8.91251 222.196 9.73727 221.289 10.4444C220.401 11.1335 219.368 11.4778 218.191 11.4771L217.646 11.4501L217.629 0.274312C218.009 0.203666 218.394 0.15268 218.786 0.121356C219.076 0.0966962 219.37 0.0836999 219.667 0.0823669Z" fill="#040D21"/>
<path d="M41.3127 12.1842C40.265 13.2319 39.7401 14.4906 39.7401 15.9792C39.7401 17.4054 40.2643 18.6427 41.3127 19.6911C42.3624 20.7408 43.62 21.2646 45.1086 21.2646C46.5972 21.2646 47.8558 20.7398 48.9045 19.6911C49.9535 18.6427 50.4777 17.4054 50.477 15.9792C50.477 14.4906 49.9532 13.2319 48.9045 12.1842C47.8558 11.1345 46.5982 10.6107 45.1086 10.6107C43.619 10.6107 42.3614 11.1365 41.3127 12.1842Z" fill="#040D21"/>
<path d="M1.11316 11.3651V70.7793H8.20101V53.12H10.5083C15.3109 53.12 19.1487 54.4197 22.0638 57.02C24.9789 59.6203 26.7194 63.1653 27.2642 67.6531L27.6841 70.7773H35.1078L34.8559 68.156C34.8559 67.2763 34.7929 66.5414 34.646 65.9756C34.4556 65.1336 34.253 64.2944 34.0382 63.4583C32.9265 59.8512 31.459 56.936 29.6135 54.7136C27.7687 52.4902 25.5248 50.8333 22.8816 49.7429C27.6631 47.5405 30.7242 44.8352 32.0458 41.6271C33.3674 38.4189 34.1221 36.0485 34.3531 34.497L34.9399 31.0149H27.5791L27.0763 33.7622C26.5724 36.2375 25.3978 38.5229 23.5524 40.5993C21.7069 42.6758 19.5676 44.1854 17.1353 45.1921C14.724 46.1779 12.3967 46.6817 10.1944 46.6817H8.223L8.13903 11.3641L1.11316 11.3651Z" fill="#040D21"/>
<path d="M48.5722 30.9952H41.4843V70.7568H48.5722V30.9952Z" fill="#040D21"/>
<path d="M55.2186 11.3653V70.7796H62.3065V53.1193H64.6128C69.3943 53.1193 73.2532 54.4199 76.1683 57.0202C79.0834 59.6205 80.8239 63.1656 81.3687 67.6534L81.7886 70.7776H89.2123L88.9604 68.1563C88.9604 67.2765 88.8764 66.5417 88.7505 65.9758C88.5602 65.1338 88.3576 64.2946 88.1426 63.4585C87.031 59.8515 85.5634 56.9362 83.718 54.7138C81.8725 52.4904 79.6286 50.8335 76.986 49.7432C81.7886 47.5407 84.8296 44.8355 86.1502 41.6273C87.4718 38.4182 88.2266 36.0488 88.4575 34.4972L89.0444 31.0151H81.6836L81.1798 33.7624C80.6769 36.2377 79.5023 38.5231 77.6568 40.5996C75.8114 42.676 73.673 44.1856 71.2398 45.1924C68.8285 46.1781 66.5012 46.682 64.2989 46.682H62.3065L62.2225 11.3643L55.2186 11.3653Z" fill="#040D21"/>
<path d="M130.65 42.6138L108.882 59.7689L104.668 54.9033L121.486 41.4391C119.284 38.482 116.243 37.0144 112.342 37.0144C109.49 37.0144 106.848 37.8741 104.458 39.5726C102.066 41.2722 100.369 43.0746 99.3821 44.9831C98.3964 46.8926 97.8926 48.905 97.8926 51.0444C97.8926 55.3431 99.4661 58.6982 102.591 61.1515C105.715 63.6058 108.777 64.8224 111.756 64.8224C115.656 64.8224 118.425 63.9207 120.039 62.1382C121.675 60.3557 122.598 59.307 122.849 58.9921C123.101 58.6982 123.394 58.2583 123.709 57.7125L129.498 61.3414C127.841 64.4235 125.429 66.8778 122.284 68.6813C119.117 70.4848 115.614 71.4075 111.756 71.4075C109.176 71.4075 106.261 70.8617 103.052 69.751C99.843 68.6603 97.0338 66.332 94.6845 62.83C92.3152 59.307 91.1405 55.3851 91.1405 51.0234C91.1405 49.3668 91.3085 47.7723 91.6444 46.1998C91.9803 44.6272 92.755 42.5928 93.9507 40.0545C95.1673 37.5172 97.3897 35.2529 100.641 33.2185C103.891 31.184 107.54 30.1563 111.609 30.1563C115.949 30.1563 119.808 31.268 123.206 33.4914C126.561 35.7347 129.036 38.7759 130.65 42.6138Z" fill="#040D21"/>
<path d="M137.236 45.843V70.7989H144.325V44.7943C144.66 42.5929 145.479 40.8734 146.799 39.6358C148.1 38.3981 149.862 37.7693 152.042 37.7693H153.888V30.9942H152.001C149.925 30.9942 147.911 31.4341 145.982 32.3159C144.052 33.1956 142.123 34.7272 140.172 36.9295C138.201 39.1319 137.236 42.1101 137.236 45.843Z" fill="#040D21"/>
<path d="M158.836 15.979C158.836 14.4905 159.36 13.2318 160.408 12.1841C161.457 11.1344 162.716 10.6106 164.204 10.6106C165.693 10.6106 166.951 11.1354 168 12.1831C169.049 13.2328 169.573 14.4905 169.573 15.979C169.573 17.4053 169.049 18.6426 168 19.691C166.951 20.7407 165.694 21.2645 164.204 21.2645C162.716 21.2645 161.457 20.7397 160.408 19.691C159.36 18.6426 158.836 17.4053 158.836 15.979Z" fill="#040D21"/>
<path d="M160.576 30.9951H167.665V70.7568H160.576V30.9951Z" fill="#040D21"/>
<path d="M174.269 11.3653H181.295L181.379 46.6819H183.351C185.552 46.6819 187.88 46.1791 190.313 45.1933C192.773 44.181 194.963 42.6084 196.709 40.6006C198.554 38.5241 199.729 36.2387 200.232 33.7634L200.735 31.0161H208.096L207.53 34.4982C207.299 36.0498 206.545 38.4191 205.223 41.6283C203.901 44.8374 200.84 47.5417 196.059 49.7441C198.701 50.8338 200.945 52.4907 202.791 54.7148C204.636 56.9382 206.104 59.8531 207.194 63.4595L207.195 63.4655C207.466 64.5542 207.677 65.39 207.802 65.9768C207.949 66.5427 208.012 67.2765 208.012 68.1572L208.264 70.7785H200.84L200.42 67.6544C199.876 63.1656 198.135 59.6215 195.22 57.0212C192.305 54.4209 188.446 53.1212 183.665 53.1212H181.337V70.7785H174.269V11.3653Z" fill="#040D21"/>
<path d="M217.611 18.5441C217.611 18.6121 217.595 18.6792 217.565 18.74C217.534 18.8007 217.49 18.8534 217.435 18.8936C217.38 18.9338 217.316 18.9604 217.249 18.9712C217.182 18.9821 217.113 18.9769 217.049 18.956C216.944 18.9204 216.839 18.8831 216.736 18.844C215.355 18.3202 214.463 16.9706 214.463 15.495V1.38901C212.819 2.27108 211.425 3.55688 210.414 5.12555C209.403 6.69423 208.807 8.49425 208.683 10.3564C208.668 10.6004 208.656 10.8463 208.656 11.0922C208.656 11.3015 208.662 11.5091 208.675 11.7151C208.945 16.5687 212.359 20.5815 216.915 21.7542C217.112 21.8037 217.287 21.9172 217.413 22.0769C217.539 22.2366 217.609 22.4336 217.611 22.6369V25.1302C217.611 25.1895 217.627 25.2477 217.659 25.298C217.69 25.3484 217.735 25.3891 217.788 25.4156C217.841 25.442 217.9 25.4532 217.959 25.4478C218.019 25.4424 218.075 25.4207 218.122 25.3851L224.324 20.7205C224.363 20.6906 224.395 20.6521 224.417 20.6079C224.439 20.5636 224.45 20.5149 224.45 20.4656C224.45 20.4162 224.439 20.3675 224.417 20.3232C224.395 20.279 224.363 20.2405 224.324 20.2106L218.122 15.546C218.075 15.5104 218.019 15.4887 217.959 15.4833C217.9 15.4779 217.841 15.4891 217.788 15.5155C217.735 15.542 217.69 15.5827 217.659 15.6331C217.627 15.6835 217.611 15.7416 217.611 15.8009V18.5441Z" fill="#040D21"/>
<path d="M213.928 30.9952H221.017V70.7568H213.928V30.9952Z" fill="#040D21"/>
<path d="M4.00681 91.3729C2.86845 91.3614 1.75096 91.0659 0.755737 90.5131L1.46853 89.0236C2.37028 89.4854 3.12506 89.8003 4.08978 89.8003C5.18047 89.8003 5.7683 89.3385 5.7683 88.5007C5.7683 87.8919 5.36942 87.493 4.50866 87.2631L3.46096 86.9691C2.51723 86.7172 1.9304 86.3393 1.5735 85.7525C1.31311 85.3149 1.17565 84.8151 1.17562 84.3059C1.17562 82.5654 2.58022 81.3488 4.59364 81.3488C5.7683 81.3488 6.94297 81.7056 7.78073 82.3135L6.87899 83.6981C6.01923 83.1732 5.36942 82.9633 4.65662 82.9633C3.88084 82.9633 3.31401 83.4252 3.31401 84.054C3.31401 84.5578 3.56593 84.7878 4.36371 85.0187L5.51638 85.3336C7.08893 85.7535 7.92769 86.7592 7.92769 88.1858C7.94868 90.0943 6.39712 91.3729 4.00581 91.3729" fill="#040D21"/>
<path d="M10.6555 90.3033C10.8655 90.9121 11.5993 91.331 12.543 91.331C13.0039 91.331 13.4867 91.226 14.0316 91.0171L13.8016 89.9264C13.4867 90.0313 13.3188 90.0733 13.1508 90.0733C12.521 90.0733 12.354 89.8424 12.354 88.9406V85.4177H13.7796V84.159H12.354C12.354 83.4462 12.396 82.6694 12.459 82.0196L10.5926 82.4815C10.5296 83.0053 10.5296 83.4462 10.5296 84.137L9.83777 84.138V85.3967H10.5296V89.2136C10.5296 89.8634 10.5496 90.0103 10.6555 90.3033Z" fill="#040D21"/>
<path d="M19.7553 85.7316C19.5912 85.6311 19.4017 85.5801 19.2094 85.5846C18.7905 85.5846 18.4336 85.7745 18.0777 86.1724V91.143H16.2323V86.4444C16.2323 85.5016 16.1273 84.7878 15.9803 84.3899L17.6369 83.9501C17.8048 84.243 17.8888 84.5579 17.9308 84.9558C18.3287 84.4109 18.8955 83.9491 19.5873 83.9491C19.8602 83.9491 19.9862 83.9701 20.2791 84.096L19.7553 85.7316Z" fill="#040D21"/>
<path fill-rule="evenodd" clip-rule="evenodd" d="M25.8367 90.6601C26.0047 91.017 26.4026 91.331 26.8225 91.5199L27.8082 90.3662C27.2004 89.8844 27.1374 89.5695 27.1584 88.7937L27.1993 86.4244C27.2203 85.6686 27.1794 85.4596 27.0744 85.1647C26.8015 84.3899 25.9837 83.9491 24.809 83.9491C24.1592 83.9491 23.5714 84.075 22.8796 84.3689C22.3977 84.5789 22.1248 84.7248 21.7469 84.9558L22.5227 86.2774C23.2785 85.7735 23.9703 85.4806 24.5571 85.4806C25.2289 85.4806 25.3759 85.7526 25.3759 86.5283V86.8222C25.2366 86.8058 25.0962 86.7991 24.956 86.8022C22.7116 86.8022 21.58 87.556 21.58 89.2136C21.58 90.6182 22.4187 91.4149 23.9913 91.4149C24.5781 91.4149 25.081 91.289 25.4169 91.038C25.5627 90.9187 25.7028 90.7926 25.8367 90.6601ZM23.5304 89.1506C23.5304 88.3108 23.9703 88.0809 25.2499 88.0809H25.3339L25.3129 89.5905C25.04 89.8844 24.6831 90.0733 24.3482 90.0733C23.8653 90.0733 23.5304 89.6954 23.5304 89.1506Z" fill="#040D21"/>
<path d="M32.2969 91.331C31.3532 91.331 30.6194 90.9111 30.4094 90.3033C30.3045 90.0103 30.2835 89.8634 30.2835 89.2136V85.3967H29.5917V84.138H30.2835C30.2835 83.4462 30.2835 83.0053 30.3465 82.4815L32.2129 82.0196C32.1499 82.6694 32.108 83.4462 32.108 84.159H33.5345V85.4177H32.107V88.9406C32.107 89.8424 32.2749 90.0733 32.9037 90.0733C33.0717 90.0733 33.2396 90.0313 33.5535 89.9264L33.7845 91.0161C33.2606 91.226 32.7778 91.331 32.2949 91.331" fill="#040D21"/>
<path fill-rule="evenodd" clip-rule="evenodd" d="M37.5392 88.2908V88.2278H41.628V87.808C41.628 86.3404 41.3351 85.3757 40.6843 84.7248C40.2234 84.264 39.4676 83.9911 38.6499 83.9911C37.7061 83.9911 37.0143 84.285 36.4275 84.9348C35.7977 85.6266 35.5468 86.4664 35.5468 87.724C35.5468 89.9474 36.8674 91.373 38.8808 91.373C39.8665 91.373 40.7053 91.038 41.523 90.3872L40.8103 89.2975C40.2444 89.7584 39.6566 89.9893 39.0278 89.9893C38.084 89.9893 37.5382 89.3805 37.5382 88.2898M39.4876 85.7516C39.6346 86.0035 39.6976 86.2764 39.6976 86.8013H39.7186V86.8842H37.5792V86.8642C37.5792 85.8775 37.9791 85.3327 38.6699 85.3327C39.0478 85.3327 39.2997 85.4796 39.4886 85.7526" fill="#040D21"/>
<path fill-rule="evenodd" clip-rule="evenodd" d="M49.6807 86.1934V89.0026C49.6807 89.8454 49.7037 90.3252 49.7217 90.7111C49.7337 90.9691 49.7437 91.184 49.7437 91.4359C49.7437 93.5333 48.3601 94.1621 46.5566 94.1621C45.5289 94.1621 44.6062 93.9522 43.9564 93.6383L44.2703 92.1907C44.8371 92.4216 45.7179 92.6946 46.5356 92.6946C47.4794 92.6946 47.9612 92.2747 47.9612 91.5829C47.9612 91.331 47.9412 90.9331 47.9193 90.7021C47.5844 91.08 47.1015 91.289 46.5566 91.289C44.4382 91.289 43.5995 89.6324 43.5995 87.766C43.5995 86.5083 43.8514 85.1447 45.0041 84.4319C45.4549 84.1413 45.9774 83.9814 46.5137 83.9701C47.2484 83.9701 48.0032 84.306 48.1712 84.6839C48.1912 84.4319 48.2132 84.348 48.3181 84.138H49.8487C49.7227 84.6629 49.6807 85.3547 49.6807 86.1934ZM47.9412 85.9635C47.6883 85.6896 47.2904 85.4806 46.8915 85.4806C46.5986 85.4806 46.2837 85.6266 46.0948 85.7945C45.6969 86.1934 45.6549 86.8852 45.6549 87.514C45.6549 88.4168 45.6549 89.8004 46.8915 89.8004C47.3114 89.8004 47.7313 89.5275 47.9412 89.2545V85.9635Z" fill="#040D21"/>
<path d="M52.5349 85.3967V91.185H54.3804V84.138H51.4862V85.3967H52.5349Z" fill="#040D21"/>
<path d="M52.2596 82.0408C52.2596 82.6708 52.7846 83.1738 53.3936 83.1738C54.0226 83.1738 54.5256 82.6708 54.5256 82.0408C54.5256 81.4118 54.0226 80.9078 53.4146 80.9078C52.7846 80.9078 52.2596 81.4118 52.2596 82.0408Z" fill="#040D21"/>
<path fill-rule="evenodd" clip-rule="evenodd" d="M59.0333 88.2278V88.2908C59.0333 89.3805 59.5792 89.9893 60.5229 89.9893C61.1517 89.9893 61.7385 89.7584 62.3054 89.2975L63.0182 90.3872C62.2004 91.037 61.3617 91.373 60.3759 91.373C58.3625 91.373 57.0409 89.9474 57.0409 87.724C57.0409 86.4664 57.2928 85.6266 57.9216 84.9348C58.5095 84.285 59.2013 83.9911 60.145 83.9911C60.9628 83.9911 61.7176 84.264 62.1794 84.7248C62.8292 85.3747 63.1232 86.3404 63.1232 87.808V88.2278H59.0333ZM61.1927 86.8013C61.1927 86.2774 61.1307 86.0045 60.9838 85.7526C60.7948 85.4806 60.5439 85.3327 60.166 85.3327C59.4742 85.3327 59.0753 85.8785 59.0753 86.8642V86.8852H61.2147V86.8013H61.1927Z" fill="#040D21"/>
<path d="M78.3274 90.0103C79.1241 90.912 80.1309 91.3309 81.4515 91.3309C82.5422 91.3309 83.3609 91.0589 84.0937 90.4081L83.214 89.1925C82.6471 89.6324 82.1443 89.8003 81.5774 89.8003C80.7387 89.8003 80.1099 89.4224 79.732 88.7306C79.4381 88.2068 79.3341 87.472 79.3341 86.1713C79.3341 85.0607 79.501 84.2639 79.8789 83.719C80.2148 83.2152 80.8437 82.9003 81.4935 82.9003C82.0393 82.9003 82.5432 83.0902 83.025 83.4461L83.8848 82.1465C83.3599 81.6846 82.4162 81.3907 81.4725 81.3907C79.9419 81.3907 78.5573 82.2305 77.8235 83.6141C77.3836 84.4528 77.1737 85.3966 77.1737 86.5912C77.1737 87.9968 77.5516 89.1505 78.3274 90.0103Z" fill="#040D21"/>
<path fill-rule="evenodd" clip-rule="evenodd" d="M91.0148 90.3452C90.469 90.9541 89.7772 91.331 88.6865 91.331C86.778 91.331 85.5194 89.9054 85.5194 87.682C85.5194 85.4596 86.779 83.9911 88.6865 83.9911C89.6932 83.9911 90.469 84.327 91.0778 85.0408C91.6437 85.6906 91.8956 86.4663 91.8956 87.62C91.8956 88.8357 91.6227 89.6534 91.0148 90.3452ZM89.5053 85.7316C89.41 85.6119 89.2885 85.5157 89.1502 85.4503C89.0119 85.385 88.8604 85.3523 88.7075 85.3547C88.2676 85.3547 87.9107 85.6266 87.7638 86.0675C87.6378 86.4454 87.5748 86.9272 87.5748 87.64C87.5748 88.4578 87.6588 89.0666 87.8058 89.4225C87.9737 89.8004 88.3926 90.0103 88.7495 90.0103C89.5463 90.0103 89.8822 89.2975 89.8822 87.641C89.8822 86.6543 89.7572 86.0465 89.5053 85.7316Z" fill="#040D21"/>
<path fill-rule="evenodd" clip-rule="evenodd" d="M98.2292 90.6602C98.3971 91.0171 98.795 91.331 99.2149 91.5199L100.201 90.3663C99.5928 89.8844 99.5298 89.5695 99.5508 88.7937L99.5928 86.4244C99.6128 85.6686 99.5718 85.4597 99.4668 85.1648C99.1939 84.39 98.3761 83.9491 97.2015 83.9491C96.5517 83.9491 95.9648 84.0751 95.272 84.369C94.7902 84.5789 94.5173 84.7249 94.1394 84.9558L94.9161 86.2774C95.6709 85.7736 96.3627 85.4807 96.9496 85.4807C97.6214 85.4807 97.7683 85.7526 97.7683 86.5284V86.8223C97.629 86.8058 97.4887 86.7991 97.3484 86.8023C95.1041 86.8023 93.9724 87.5561 93.9724 89.2136C93.9724 90.6182 94.8112 91.415 96.3837 91.415C96.9705 91.415 97.4734 91.289 97.8103 91.0381C97.9353 90.9331 98.0812 90.8071 98.2292 90.6602ZM95.9229 89.1506C95.9229 88.3109 96.3637 88.0809 97.6424 88.0809H97.7263L97.7053 89.5905C97.4324 89.8844 97.0755 90.0733 96.7406 90.0733C96.2578 90.0733 95.9229 89.6955 95.9229 89.1506Z" fill="#040D21"/>
<path d="M107.038 90.8911C106.535 91.184 105.989 91.331 105.318 91.331C103.389 91.331 102.256 89.9894 102.256 87.703C102.256 86.0885 102.865 85.0188 103.704 84.453C104.164 84.138 104.856 83.9281 105.444 83.9281C105.905 83.9281 106.43 84.0331 106.807 84.243C107.059 84.39 107.185 84.4729 107.499 84.7459L106.598 85.9625C106.22 85.6266 105.821 85.4177 105.486 85.4177C104.668 85.4177 104.29 86.1305 104.29 87.787C104.29 88.7097 104.416 89.2556 104.647 89.5695C104.835 89.8214 105.15 89.9684 105.465 89.9684C105.884 89.9684 106.283 89.7794 106.723 89.3805L106.828 89.2756L107.666 90.3873C107.416 90.6392 107.29 90.7442 107.038 90.8911Z" fill="#040D21"/>
<path d="M114.084 86.4452V91.1839H115.908V86.2553C115.908 85.5855 115.866 85.3545 115.719 84.9556C115.509 84.3258 114.797 83.9489 113.895 83.9489C113.182 83.9489 112.385 84.2428 111.902 84.7037L111.923 84.1169V82.7123C111.923 82.0405 111.881 81.3697 111.797 80.9928L109.91 81.4326C109.994 81.7266 110.057 82.3974 110.057 83.0472V91.1849H111.923V86.1293C112.322 85.7514 112.909 85.4795 113.371 85.4795C113.895 85.4795 114.084 85.7524 114.084 86.4452Z" fill="#040D21"/>
<path d="M119.201 85.3967H118.152V84.138H121.046V91.184H119.201V85.3967Z" fill="#040D21"/>
<path d="M120.061 83.1738C119.761 83.172 119.474 83.052 119.261 82.8399C119.049 82.6278 118.929 82.3407 118.928 82.0408C118.928 81.4118 119.453 80.9078 120.082 80.9078C120.69 80.9078 121.194 81.4118 121.194 82.0408C121.194 82.6708 120.69 83.1738 120.061 83.1738Z" fill="#040D21"/>
<path d="M127.861 86.5913V91.164H129.685V86.0255C129.685 85.5856 129.643 85.2707 129.539 85.0187C129.308 84.4319 128.616 84.012 127.84 84.012C127.442 84.012 126.959 84.117 126.582 84.3059C126.333 84.4432 126.093 84.5954 125.863 84.7618L125.764 84.8298C125.759 84.5195 125.672 84.2159 125.512 83.95L123.877 84.4099C124.045 84.8928 124.128 85.4596 124.128 86.0674V91.164H125.973V86.1934C126.393 85.8155 126.875 85.5636 127.253 85.5636C127.715 85.5636 127.861 85.7945 127.861 86.5913Z" fill="#040D21"/>
<path fill-rule="evenodd" clip-rule="evenodd" d="M138.366 86.1934V89.0026C138.366 89.8454 138.389 90.3252 138.407 90.7111C138.419 90.9691 138.429 91.184 138.429 91.4359C138.429 93.5333 137.046 94.1621 135.242 94.1621C134.214 94.1621 133.292 93.9522 132.641 93.6383L132.956 92.1907C133.522 92.4216 134.403 92.6946 135.221 92.6946C136.165 92.6946 136.647 92.2747 136.647 91.5829C136.647 91.331 136.626 90.9331 136.605 90.7021C136.27 91.079 135.787 91.289 135.242 91.289C133.124 91.289 132.285 89.6324 132.285 87.766C132.285 86.5083 132.537 85.1447 133.69 84.4319C134.141 84.1411 134.664 83.9812 135.2 83.9701C135.934 83.9701 136.689 84.306 136.857 84.6839C136.878 84.4319 136.899 84.348 137.004 84.138H138.534C138.408 84.6629 138.366 85.3547 138.366 86.1934ZM136.626 85.9625C136.374 85.6896 135.976 85.4796 135.577 85.4796C135.284 85.4796 134.969 85.6266 134.78 85.7945C134.382 86.1934 134.34 86.8852 134.34 87.514C134.34 88.4158 134.34 89.8004 135.577 89.8004C135.997 89.8004 136.416 89.5275 136.626 89.2545V85.9625Z" fill="#040D21"/>
<path d="M160.366 86.1724L160.701 91.164H162.63L161.771 81.6217H159.317L158.017 86.3603L157.682 87.9129L157.346 86.3823L156.087 81.6217H153.634L152.732 91.164H154.641L154.977 86.1724L155.039 84.4529L155.438 86.1924L156.78 91.164H158.416L159.862 86.1724L160.282 84.4729L160.366 86.1724Z" fill="#040D21"/>
<path fill-rule="evenodd" clip-rule="evenodd" d="M170.119 91.5199C169.7 91.331 169.302 91.017 169.134 90.6601C169 90.7926 168.86 90.9187 168.715 91.038C168.379 91.289 167.876 91.4149 167.288 91.4149C165.716 91.4149 164.877 90.6182 164.877 89.2136C164.877 87.556 166.01 86.8012 168.253 86.8012C168.4 86.8012 168.505 86.8013 168.673 86.8222V86.5283C168.673 85.7526 168.526 85.4806 167.855 85.4806C167.267 85.4806 166.575 85.7735 165.821 86.2774L165.045 84.9558C165.422 84.7258 165.695 84.5789 166.177 84.3689C166.869 84.075 167.456 83.9491 168.106 83.9491C169.281 83.9491 170.098 84.3889 170.371 85.1657C170.476 85.4596 170.518 85.6686 170.497 86.4244L170.455 88.7937C170.434 89.5695 170.497 89.8834 171.105 90.3662L170.119 91.5199ZM168.568 88.0809C167.288 88.0809 166.848 88.3108 166.848 89.1506C166.848 89.6954 167.183 90.0733 167.666 90.0733C168.002 90.0733 168.358 89.8834 168.631 89.5905L168.652 88.0809H168.568Z" fill="#040D21"/>
<path d="M176.535 85.5856C176.745 85.5856 176.892 85.6266 177.08 85.7316L177.605 84.0961C177.311 83.9701 177.185 83.9491 176.913 83.9491C176.221 83.9491 175.655 84.411 175.256 84.9558C175.214 84.5579 175.131 84.243 174.963 83.9491L173.306 84.389C173.452 84.7889 173.557 85.5017 173.557 86.4454V91.143H175.403V86.1725C175.76 85.7736 176.116 85.5856 176.535 85.5856Z" fill="#040D21"/>
<path d="M179.533 91.1639V83.2361C179.533 82.6283 179.512 82.1465 179.408 81.4117L181.254 80.9498C181.337 81.4746 181.358 82.2924 181.358 83.2361V91.1639H179.533Z" fill="#040D21"/>
<path d="M183.771 91.164L181.4 87.1792L183.204 84.138H185.427L183.183 87.0742L185.951 91.163L183.771 91.164Z" fill="#040D21"/>
<path fill-rule="evenodd" clip-rule="evenodd" d="M189.223 88.2908V88.2278H193.311V87.808C193.311 86.3404 193.019 85.3757 192.368 84.7248C191.907 84.264 191.152 83.9911 190.333 83.9911C189.39 83.9911 188.698 84.285 188.111 84.9348C187.481 85.6266 187.23 86.4654 187.23 87.724C187.23 89.9474 188.551 91.373 190.564 91.373C191.55 91.373 192.389 91.038 193.207 90.3872L192.494 89.2975C191.928 89.7584 191.34 89.9893 190.711 89.9893C189.767 89.9893 189.223 89.3815 189.223 88.2908ZM191.173 85.7516C191.319 86.0035 191.382 86.2764 191.382 86.8013H191.403V86.8842H189.265V86.8642C189.265 85.8775 189.663 85.3327 190.354 85.3327C190.732 85.3327 190.984 85.4786 191.173 85.7516Z" fill="#040D21"/>
<path d="M197.8 91.3309C196.856 91.3309 196.121 90.9111 195.913 90.3032C195.808 90.0103 195.787 89.8633 195.787 89.2135V85.3966H195.094V84.138H195.787C195.787 83.4462 195.787 83.0053 195.85 82.4815L197.716 82.0196C197.653 82.6694 197.611 83.4462 197.611 84.159H199.037V85.4176H197.611V88.9406C197.611 89.8424 197.779 90.0733 198.408 90.0733C198.576 90.0733 198.744 90.0313 199.058 89.9263L199.289 91.016C198.765 91.226 198.282 91.3309 197.8 91.3309Z" fill="#040D21"/>
<path d="M201.868 85.3967V91.185H203.713V84.138H200.82V85.3967H201.868Z" fill="#040D21"/>
<path d="M201.596 82.0409C201.596 82.6709 202.12 83.1739 202.728 83.1739C203.358 83.1739 203.861 82.6709 203.861 82.0409C203.861 81.4119 203.358 80.9079 202.749 80.9079C202.12 80.9079 201.596 81.4119 201.596 82.0409Z" fill="#040D21"/>
<path d="M210.529 91.164V86.5913C210.529 85.7945 210.382 85.5636 209.921 85.5636C209.543 85.5636 209.061 85.8155 208.641 86.1934V91.164H206.796V86.0675C206.796 85.4596 206.712 84.8928 206.545 84.4109L208.18 83.9491C208.348 84.243 208.432 84.5366 208.432 84.8298L208.531 84.7608C208.763 84.5999 208.974 84.4529 209.25 84.306C209.627 84.117 210.11 84.0121 210.508 84.0121C211.283 84.0121 211.976 84.4319 212.206 85.0188C212.311 85.2707 212.353 85.5846 212.353 86.0255V91.164H210.529Z" fill="#040D21"/>
<path fill-rule="evenodd" clip-rule="evenodd" d="M221.036 89.0036V86.1935C221.036 85.3537 221.078 84.6629 221.204 84.138H219.673C219.569 84.348 219.548 84.432 219.527 84.6839C219.359 84.306 218.604 83.9701 217.87 83.9701C217.333 83.9813 216.81 84.1412 216.359 84.432C215.206 85.1448 214.955 86.5074 214.955 87.766C214.955 89.6325 215.794 91.289 217.912 91.289C218.457 91.289 218.939 91.0791 219.275 90.7022C219.296 90.9321 219.317 91.332 219.317 91.5829C219.317 92.2747 218.835 92.6946 217.891 92.6946C217.072 92.6946 216.191 92.4217 215.626 92.1907L215.311 93.6383C215.962 93.9522 216.884 94.1622 217.912 94.1622C219.715 94.1622 221.099 93.5324 221.099 91.436C221.099 91.184 221.089 90.9691 221.077 90.7112C221.059 90.3253 221.036 89.8454 221.036 89.0036ZM218.247 85.4807C218.646 85.4807 219.044 85.6906 219.296 85.9625V89.2546C219.086 89.5275 218.667 89.8004 218.247 89.8004C217.009 89.8004 217.009 88.4158 217.009 87.5141C217.009 86.8853 217.051 86.1935 217.45 85.7946C217.639 85.6266 217.953 85.4807 218.247 85.4807Z" fill="#040D21"/>
</svg>
