<svg width="790" height="86" viewBox="0 0 790 86" fill="none" xmlns="http://www.w3.org/2000/svg">
<path d="M41.6348 55.2252C42.1741 56.4836 42.6955 57.76 43.1988 59.0543C43.7022 57.724 44.2415 56.4297 44.8167 55.1713C45.3561 53.877 45.9313 52.6365 46.5425 51.4501L70.1104 7.44227C70.3981 6.90296 70.6857 6.45354 70.9733 6.094C71.2969 5.77041 71.6565 5.53671 72.052 5.39289C72.4115 5.24908 72.8429 5.15919 73.3463 5.12324C73.8137 5.08728 74.371 5.06931 75.0182 5.06931H86.1819V84.5638H73.1845V33.2213C73.1845 32.2506 73.2025 31.2079 73.2384 30.0933C73.3104 28.9428 73.4002 27.7923 73.5081 26.6417L49.4548 71.6742C48.9155 72.7169 48.2144 73.5259 47.3515 74.1011C46.4527 74.6404 45.41 74.9101 44.2235 74.9101H42.2281C41.0416 74.9101 40.0169 74.6404 39.154 74.1011C38.2551 73.5259 37.536 72.7169 36.9967 71.6742L12.6199 26.48C12.7637 27.6664 12.8716 28.8349 12.9435 29.9855C13.0154 31.136 13.0513 32.2146 13.0513 33.2213V84.5638H0V5.06931H11.1637C11.8109 5.06931 12.3862 5.08728 12.8895 5.12324C13.3569 5.15919 13.7704 5.24908 14.1299 5.39289C14.5254 5.53671 14.885 5.77041 15.2086 6.094C15.5681 6.45354 15.8917 6.90296 16.1793 7.44227L39.909 51.5579C40.5202 52.7444 41.0955 53.9668 41.6348 55.2252Z" fill="#002E40"/>
<path fill-rule="evenodd" clip-rule="evenodd" d="M199.977 44.8165C199.977 50.641 199.006 56.0342 197.064 60.9958C195.123 65.9575 192.39 70.254 188.867 73.8854C185.343 77.5167 181.101 80.3571 176.139 82.4065C171.213 84.4199 165.73 85.4266 159.69 85.4266C153.686 85.4266 148.203 84.4199 143.241 82.4065C138.279 80.3571 134.037 77.5167 130.513 73.8854C126.954 70.254 124.203 65.9575 122.262 60.9958C120.32 56.0342 119.35 50.641 119.35 44.8165C119.35 38.9919 120.32 33.5988 122.262 28.6372C124.203 23.6755 126.954 19.379 130.513 15.7476C134.037 12.1163 138.279 9.27588 143.241 7.2265C148.203 5.21307 153.686 4.20636 159.69 4.20636C165.73 4.20636 171.213 5.23105 176.139 7.28043C181.101 9.32982 185.343 12.1522 188.867 15.7476C192.39 19.379 195.123 23.6755 197.064 28.6372C199.006 33.5988 199.977 38.9919 199.977 44.8165ZM184.768 44.8165C184.768 40.466 184.193 36.547 183.042 33.0595C181.892 29.6079 180.238 26.6777 178.081 24.2687C175.923 21.8239 173.299 19.9722 170.207 18.7138C167.115 17.4195 163.609 16.7723 159.69 16.7723C155.807 16.7723 152.32 17.4195 149.227 18.7138C146.099 19.9722 143.457 21.8239 141.3 24.2687C139.106 26.6777 137.417 29.6079 136.23 33.0595C135.08 36.547 134.504 40.466 134.504 44.8165C134.504 49.1669 135.08 53.0859 136.23 56.5735C137.417 60.0251 139.106 62.9553 141.3 65.3642C143.457 67.7372 146.099 69.5709 149.227 70.8652C152.32 72.1596 155.807 72.8067 159.69 72.8067C163.609 72.8067 167.115 72.1596 170.207 70.8652C173.299 69.5709 175.923 67.7372 178.081 65.3642C180.238 62.9553 181.892 60.0251 183.042 56.5735C184.193 53.0859 184.768 49.1669 184.768 44.8165Z" fill="#002E40"/>
<path d="M264.802 72.645C267.678 72.645 270.249 72.1596 272.514 71.1888C274.743 70.254 276.649 68.9237 278.231 67.1979C279.777 65.4721 280.963 63.3868 281.79 60.9419C282.617 58.4611 283.03 55.7106 283.03 52.6905V5.06931H297.808V52.6905C297.808 57.4005 297.053 61.7689 295.543 65.7957C293.996 69.7866 291.803 73.2382 288.963 76.1505C286.087 79.0628 282.617 81.3459 278.554 82.9998C274.491 84.6177 269.907 85.4267 264.802 85.4267C259.732 85.4267 255.148 84.6177 251.049 82.9998C246.987 81.3459 243.535 79.0628 240.695 76.1505C237.854 73.2382 235.679 69.7866 234.169 65.7957C232.659 61.7689 231.904 57.4005 231.904 52.6905V5.06931H246.681V52.6365C246.681 55.6567 247.094 58.4072 247.921 60.888C248.748 63.3329 249.935 65.4182 251.481 67.144C252.991 68.9058 254.878 70.254 257.144 71.1888C259.409 72.1596 261.961 72.645 264.802 72.645Z" fill="#002E40"/>
<path d="M343.972 5.17717C344.404 5.21312 344.799 5.32098 345.159 5.50075C345.482 5.64457 345.824 5.87827 346.184 6.20186C346.507 6.52545 346.867 6.93892 347.262 7.44227L389.005 60.6183C388.825 59.324 388.717 58.0656 388.681 56.8432C388.609 55.5848 388.573 54.4342 388.573 53.3916V5.06931H401.625V84.5638H393.967C392.816 84.5638 391.845 84.384 391.054 84.0244C390.299 83.629 389.562 82.9638 388.843 82.029L347.262 29.0686C347.37 30.2551 347.46 31.4236 347.532 32.5742C347.568 33.7247 347.586 34.7853 347.586 35.7561V84.5638H334.588V5.06931H342.301C342.984 5.06931 343.541 5.10526 343.972 5.17717Z" fill="#002E40"/>
<path d="M494.117 5.06931V17.2038H470.225V84.5638H455.448V17.2038H431.395V5.06931H494.117Z" fill="#002E40"/>
<path d="M577.602 5.06931V10.9478C577.602 12.7095 577.404 14.1297 577.009 15.2084C576.613 16.287 576.236 17.2038 575.876 17.9588L545.837 79.9257C545.189 81.22 544.309 82.3166 543.194 83.2155C542.043 84.1143 540.497 84.5638 538.556 84.5638H528.74L559.481 23.8373C560.776 21.3205 562.214 19.1633 563.796 17.3656H525.774C524.911 17.3656 524.174 17.06 523.563 16.4488C522.916 15.8375 522.592 15.1005 522.592 14.2376V5.06931H577.602Z" fill="#002E40"/>
<path d="M789.875 5.06943L735.513 82.5684C734.65 83.8088 733.193 84.5639 731.683 84.5639H728.609L683.523 20.2241L679.909 25.4015L721.383 84.5639H688.538C687.028 84.5639 685.572 83.8088 684.709 82.5684L641.025 20.2241L630.832 34.7315L604.028 72.9687H611.309L633.475 41.419L640.54 51.5041L618.752 82.5684C617.889 83.8088 616.433 84.5639 614.923 84.5639H581.755L641.025 0.053833L692.152 72.9687H699.163L665.78 25.4015L683.523 0.053833L731.36 68.3306L767.602 16.6646H723.108C721.059 16.6646 719.387 14.9927 719.387 12.9434V5.06943H789.875Z" fill="url(#paint0_linear_388_87)"/>
<defs>
<linearGradient id="paint0_linear_388_87" x1="581.757" y1="42.3089" x2="789.875" y2="42.3089" gradientUnits="userSpaceOnUse">
<stop stop-color="#F3B05D"/>
<stop offset="1" stop-color="#E52815"/>
</linearGradient>
</defs>
</svg>
