<svg width="128" height="68" viewBox="0 0 128 68" fill="none" xmlns="http://www.w3.org/2000/svg">
<path fill-rule="evenodd" clip-rule="evenodd" d="M13.2581 10.6478C12.6256 10.5845 11.6641 10.5339 11.1075 10.5339C10.5508 10.5466 9.69057 10.5972 9.20984 10.6605C8.7291 10.7237 7.83089 10.9135 7.22365 11.0907C6.60375 11.2678 5.64229 11.6348 5.073 11.9131C4.49106 12.2042 3.66875 12.7103 3.23862 13.0519C2.79584 13.4062 2.1886 14.0136 1.87233 14.4185C1.55606 14.8107 1.12593 15.4813 0.923514 15.8989C0.7211 16.3164 0.468082 17.025 0.366875 17.4805C0.253017 17.936 0.164461 18.7838 0.164461 19.3785C0.164461 19.9732 0.227716 20.7956 0.303621 21.2132C0.366875 21.6307 0.670496 22.4532 0.961466 23.0479C1.35364 23.8577 1.70787 24.3512 2.37836 25.0091C2.8591 25.5026 3.74466 26.2112 4.33925 26.5655C4.93384 26.9324 6.35074 27.6916 7.50197 28.2483C8.6532 28.8051 10.108 29.5643 10.7279 29.9186C11.3605 30.2855 12.2081 30.8929 12.6256 31.2851C13.119 31.7533 13.5238 32.272 13.7768 32.8035C14.0045 33.2463 14.2449 33.9549 14.3334 34.3725C14.4599 35.0178 14.4599 35.2582 14.2702 35.9541C14.1563 36.4096 13.916 37.0296 13.7262 37.3333C13.5364 37.6496 13.1569 38.0925 12.8786 38.3203C12.6003 38.548 12.1322 38.8517 11.8412 38.9909C11.5376 39.1301 11.0569 39.2945 10.7659 39.3705C10.4623 39.4337 9.71587 39.497 9.08333 39.497C8.43813 39.497 7.61582 39.4084 7.18569 39.2945C6.76822 39.1933 6.14832 38.9656 5.7941 38.8011C5.45253 38.6366 4.85793 38.2317 4.47841 37.89C4.09888 37.5611 3.64345 37.0549 3.44104 36.7766C3.25127 36.4982 2.9603 35.9035 2.78319 35.448C2.61873 34.9925 2.42897 34.2839 2.37836 33.8663C2.32776 33.4488 2.20125 32.9174 2.08739 32.6896C1.94823 32.4365 1.72052 32.2214 1.4928 32.1455C1.29039 32.0822 0.974117 32.0569 0.797005 32.0949C0.619893 32.1329 0.379526 32.2594 0.253017 32.3733C0.0506035 32.5884 0.0253017 32.9427 0.0126509 36.7133L0 40.8256C0.468082 41.1546 1.26509 41.395 2.06209 41.5721C2.8591 41.7493 4.06093 41.977 4.71877 42.0782C5.37662 42.1795 6.57845 42.2933 7.37546 42.344C8.27367 42.3946 9.33634 42.3693 10.1587 42.2807C10.8924 42.2048 11.9551 41.9897 12.537 41.8252C13.1063 41.6607 13.9286 41.357 14.3714 41.1672C14.8015 40.9774 15.6112 40.4966 16.1552 40.1297C16.6992 39.7501 17.5341 39.0288 17.9895 38.5354C18.445 38.0545 19.0396 37.2574 19.2926 36.7639C19.5456 36.2831 19.8366 35.6378 19.9504 35.3215C20.0516 35.0051 20.2034 34.3598 20.292 33.8663C20.3806 33.3602 20.4059 32.4618 20.3679 31.7786C20.33 31.0194 20.2034 30.2982 20.039 29.8173C19.8872 29.3998 19.5076 28.6659 19.204 28.1724C18.9004 27.679 18.2299 26.8818 17.7239 26.3757C17.2178 25.8822 16.2817 25.1483 15.6618 24.7561C15.0292 24.3512 13.6376 23.6046 12.5623 23.0859C11.487 22.5671 10.1966 21.9344 9.71587 21.694C9.23514 21.441 8.51404 21.0234 8.13451 20.7703C7.75498 20.5173 7.19835 20.0238 6.89472 19.6822C6.5658 19.3026 6.27483 18.8091 6.16097 18.4295C6.05977 18.0879 5.98386 17.5311 5.98386 17.2021C5.98386 16.8605 6.11037 16.2658 6.26218 15.8736C6.43929 15.3801 6.74291 14.9246 7.17304 14.4944C7.60317 14.0768 8.07126 13.7478 8.57729 13.558C9.20984 13.305 9.56406 13.2544 10.7912 13.2544C12.0436 13.2417 12.3599 13.2797 13.0684 13.558C13.6376 13.7731 14.1184 14.0895 14.6371 14.5703C15.0419 14.9499 15.5226 15.5572 15.6871 15.8989C15.8642 16.2532 16.1172 16.9617 16.2437 17.4805C16.3955 18.1385 16.56 18.5054 16.7624 18.6573C16.9269 18.7838 17.2431 18.885 17.4709 18.8724C17.7112 18.8724 18.0148 18.7458 18.2299 18.5687L18.5715 18.265C18.5209 14.3299 18.445 13.1531 18.3438 12.8242C18.2046 12.318 18.116 12.2421 17.2431 11.7866C16.7245 11.5209 15.8642 11.1792 15.3455 11.0401C14.8268 10.9009 13.8907 10.7237 13.2581 10.6478ZM38.3068 19.9985C37.5604 19.796 36.814 19.7201 35.4604 19.6822C33.8284 19.6442 33.4995 19.6695 32.3862 19.9479C31.7157 20.125 30.8049 20.4287 30.3747 20.6185C29.932 20.8209 29.2109 21.2258 28.7554 21.5295C28.3 21.8459 27.5916 22.4152 27.1741 22.8075C26.7566 23.1997 26.1241 23.9336 25.7572 24.4524C25.403 24.9712 24.9096 25.8189 24.6565 26.3377C24.4035 26.8565 24.0873 27.7422 23.9354 28.299C23.7077 29.1341 23.6571 29.6528 23.6571 31.2092C23.6571 32.5504 23.7204 33.3855 23.8722 34.0561C23.9861 34.5749 24.2391 35.3721 24.4288 35.8276C24.6312 36.2831 25.0361 37.017 25.3397 37.4725C25.6433 37.928 26.2379 38.6492 26.6554 39.0921C27.0855 39.535 27.8572 40.1676 28.3759 40.4966C28.8946 40.8256 29.8055 41.3064 30.4 41.5595C30.9946 41.7999 31.9308 42.1035 32.4874 42.2301C33.1832 42.3819 34.0435 42.4452 35.2706 42.4452C36.3713 42.4452 37.3707 42.3693 37.9273 42.2554C38.4207 42.1542 39.0406 41.9644 39.3189 41.8505C39.5229 41.7578 40.0054 41.5291 40.5225 41.2841C40.711 41.1948 40.9041 41.1033 41.09 41.0154C42.0894 40.5219 42.5955 40.1803 43.481 39.3452C44.1009 38.7631 44.8726 37.9027 45.2016 37.4092C45.5178 36.9158 45.9606 36.0933 46.1757 35.5745C46.3907 35.0557 46.6564 34.1827 46.7703 33.6512C46.8841 33.1072 46.9727 32.1329 46.9727 31.5002C46.9727 30.8549 46.8715 29.7288 46.7323 28.9949C46.6058 28.261 46.3022 27.2108 46.0745 26.654C45.8468 26.0973 45.3913 25.2495 45.0624 24.7561C44.7335 24.2626 43.9491 23.3769 43.3166 22.7695C42.3298 21.8205 41.9629 21.5548 40.7485 20.9601C39.9641 20.5805 38.8635 20.1503 38.3068 19.9985ZM74.8426 20.6565L74.6148 20.3528C68.087 20.3275 66.5689 20.3781 66.4171 20.454C66.2779 20.5299 66.1387 20.7324 66.1134 20.8969C66.0755 21.074 66.0882 21.3271 66.1134 21.4663C66.1514 21.6054 66.3412 21.7826 66.5436 21.8712C66.7333 21.9471 67.2394 22.0989 67.6569 22.1875C68.1123 22.2761 68.5677 22.4785 68.7828 22.6683L69.1497 22.9846C69.3141 26.6161 69.3521 29.2226 69.3394 31.1333L69.3015 34.5876C68.1437 33.2409 67.2368 32.182 66.5187 31.3436C65.8402 30.5513 65.3303 29.9559 64.9369 29.501C64.3373 28.8076 63.5781 27.906 62.9985 27.2176C62.7954 26.9764 62.6144 26.7615 62.47 26.5908C61.9134 25.9328 61.2808 25.1863 61.0658 24.9459C60.838 24.7055 60.2181 23.9589 59.6868 23.301C59.1555 22.643 58.4344 21.7446 58.0928 21.3144C57.7512 20.8716 57.3717 20.492 57.2452 20.4667C57.1313 20.4414 55.3855 20.4287 53.3614 20.4414L49.7053 20.454C49.427 20.9475 49.3764 21.2258 49.4143 21.403C49.4523 21.5928 49.6294 21.7826 49.8444 21.8712C50.0342 21.9597 50.3758 22.061 50.5782 22.1116C50.7806 22.1622 51.1854 22.3014 51.4637 22.4152C51.7421 22.5418 52.1089 22.7948 52.286 22.9846L52.6023 23.3263C52.6023 33.6512 52.5644 37.1688 52.5264 37.7888C52.4758 38.4088 52.362 39.1047 52.2607 39.3072C52.1469 39.5096 51.8939 39.7627 51.7041 39.8513C51.5017 39.9525 51.021 40.079 50.6414 40.1423C50.1481 40.2182 49.8571 40.3448 49.6547 40.5725C49.5029 40.7497 49.3764 40.9648 49.3764 41.0533C49.3637 41.1292 49.4649 41.3444 49.5914 41.4962L49.8191 41.7999C58.0548 41.7999 58.3079 41.7872 58.4597 41.5721C58.5482 41.4329 58.6115 41.1799 58.6115 40.9901C58.6115 40.7876 58.5229 40.5472 58.4217 40.446C58.3205 40.3448 58.1308 40.2309 58.0042 40.2056C57.8904 40.1676 57.4476 40.079 57.0301 40.0031C56.6126 39.9272 56.1446 39.788 55.9801 39.6868C55.8283 39.5856 55.6132 39.2945 55.512 39.0541C55.3476 38.6745 55.3223 37.6117 55.3223 32.1582C55.3223 28.6026 55.3602 25.7051 55.4108 25.7051C55.4741 25.7051 56.056 26.3377 56.7139 27.1222C57.3717 27.9067 59.4464 30.3361 61.3314 32.5378C62.8102 34.2551 64.437 36.1671 65.4237 37.3268C65.6947 37.6453 65.9174 37.9071 66.0755 38.0925C66.5863 38.7003 67.2688 39.5105 67.8412 40.19C68.0911 40.4866 68.32 40.7583 68.5045 40.9774C69.39 42.0023 69.7063 42.2933 70.0226 42.3566C70.2503 42.3946 70.6551 42.3946 70.9081 42.3566C71.2118 42.306 71.4521 42.1795 71.566 42.0023C71.7051 41.7619 71.7557 40.1297 71.819 32.9806C71.8696 28.1851 71.9455 23.9336 71.9835 23.554C72.0341 23.1744 72.1606 22.7569 72.2744 22.6303C72.3883 22.5038 72.8564 22.3393 73.4763 22.2254C74.0455 22.1116 74.5769 21.9344 74.7034 21.8079C74.8173 21.694 74.9564 21.4536 74.9944 21.2765C75.045 21.0656 74.9944 20.8589 74.8426 20.6565ZM83.597 20.454C83.4578 20.416 81.9017 20.3781 80.1306 20.3654C77.6511 20.3401 76.8667 20.3654 76.6643 20.492C76.4872 20.6058 76.4239 20.783 76.4366 21.0993C76.4366 21.3397 76.5504 21.6307 76.6643 21.7573C76.7908 21.8712 77.3221 22.0736 77.8408 22.1875C78.4228 22.3267 78.8908 22.5165 79.0426 22.681C79.2957 22.9467 79.2957 23.1238 79.2957 30.8169C79.2957 36.7639 79.2577 38.7884 79.1312 39.1554C79.0426 39.4464 78.8529 39.6868 78.6252 39.8007C78.4354 39.8892 77.9926 40.0284 77.651 40.117C77.2968 40.1929 76.8667 40.3701 76.6643 40.5092C76.4745 40.6484 76.3227 40.8888 76.3227 41.0533C76.3227 41.2052 76.3986 41.4456 76.4998 41.5848C76.6643 41.8252 76.8161 41.8378 80.7758 41.8378C84.2548 41.8378 84.9253 41.8125 85.1024 41.648C85.2289 41.5342 85.3175 41.2684 85.3175 41.0154C85.3175 40.775 85.2416 40.4966 85.153 40.4207C85.0645 40.3321 84.5584 40.1676 84.0397 40.0664C83.521 39.9525 82.9518 39.7627 82.7747 39.6362C82.5975 39.5096 82.3825 39.1933 82.2813 38.9149C82.1548 38.5354 82.1042 36.979 82.0536 32.1582C81.9903 25.9455 81.9903 25.8949 82.2307 26.1479C82.3698 26.2871 83.5843 27.7043 84.938 29.2986C86.2916 30.8929 88.2525 33.2084 89.2898 34.4357C90.3399 35.6631 92.0477 37.6876 93.0851 38.9276C94.1351 40.1676 95.1852 41.4076 95.4255 41.686C95.6659 41.9517 96.0707 42.2301 96.3111 42.306C96.5514 42.3819 96.9689 42.4072 97.2346 42.3566C97.4876 42.3186 97.8039 42.1795 97.9304 42.0656C98.1455 41.8505 98.1708 41.4203 98.2467 36.2072C98.2973 33.1072 98.3732 29.0075 98.4111 27.0969C98.4491 25.1863 98.5376 23.4022 98.6009 23.1491C98.6894 22.7822 98.816 22.6303 99.1322 22.4912C99.3473 22.3899 99.828 22.2634 100.17 22.2128C100.524 22.1495 100.929 22.0103 101.093 21.8838C101.283 21.7193 101.371 21.5169 101.371 21.1879C101.384 20.8842 101.296 20.6311 101.169 20.5173C100.992 20.3528 100.334 20.3275 96.893 20.3401C94.6538 20.3528 92.7562 20.3907 92.6676 20.4414C92.5917 20.4793 92.4652 20.6438 92.402 20.8083C92.3387 20.9601 92.3134 21.2258 92.364 21.3903C92.4146 21.5548 92.5917 21.7573 92.7688 21.8459C92.9459 21.9344 93.3128 22.0483 93.5911 22.0989C93.8695 22.1495 94.3628 22.2634 94.6918 22.3646C95.1599 22.5038 95.3496 22.643 95.5141 22.9593C95.7165 23.3136 95.7418 23.921 95.7797 28.4255C95.805 31.2092 95.805 33.7398 95.7797 34.0435L95.7418 34.6002C93.8821 32.3733 92.8321 31.1206 92.1995 30.3867C91.7921 29.914 91.201 29.2103 90.6459 28.5496C90.3392 28.1845 90.0435 27.8325 89.7959 27.5398C89.0998 26.717 87.847 25.2362 87.0127 24.2626C86.7558 23.959 86.4774 23.6314 86.202 23.3074C85.5825 22.5785 84.9788 21.8683 84.6723 21.4916C84.2169 20.9475 83.7361 20.4793 83.597 20.454ZM121.081 20.454C120.917 20.416 116.894 20.3781 112.137 20.3528C105.192 20.3275 103.434 20.3654 103.231 20.492C103.054 20.6058 102.991 20.783 103.003 21.0993C103.003 21.3397 103.105 21.6181 103.206 21.7193C103.307 21.8205 103.611 21.9597 103.876 22.0356C104.129 22.0989 104.597 22.2128 104.914 22.2761C105.23 22.352 105.609 22.5038 105.774 22.605C105.926 22.7063 106.09 22.9467 106.153 23.1491C106.204 23.3389 106.242 27.0083 106.242 31.2978V39.0921C105.749 39.6235 105.483 39.826 105.331 39.8892C105.167 39.9525 104.686 40.0664 104.256 40.1297C103.813 40.2056 103.358 40.3574 103.231 40.4839C103.105 40.5978 103.003 40.8762 103.003 41.0786C103.003 41.2937 103.079 41.5342 103.168 41.6227C103.294 41.7493 105.217 41.7872 112.492 41.8125C121.524 41.8378 121.651 41.8378 121.815 41.5848C121.904 41.4456 122.132 40.2815 122.309 38.9909C122.6 36.8651 122.612 36.6247 122.435 36.3717C122.283 36.1313 122.144 36.0806 121.651 36.1186L121.069 36.1439C120.36 37.5484 120.019 38.1051 119.842 38.2949C119.665 38.4847 119.298 38.7631 119.019 38.9276C118.741 39.0921 118.058 39.3198 117.501 39.4337C116.945 39.5476 115.743 39.6741 114.845 39.7121C113.82 39.7501 112.922 39.7248 112.479 39.6362C111.922 39.535 111.682 39.4084 111.492 39.1554C111.239 38.8137 111.226 38.6239 111.239 35.3594V31.9051C113.782 31.9051 114.832 31.9684 115.199 32.0443C115.667 32.1582 115.983 32.3227 116.312 32.6516C116.641 32.968 116.843 33.3349 116.995 33.8663C117.109 34.2839 117.299 34.7015 117.413 34.79C117.539 34.8786 117.805 34.9419 118.007 34.9419C118.222 34.9545 118.475 34.8533 118.577 34.7268C118.741 34.537 118.766 33.8917 118.766 30.7031V26.9071C117.881 26.8565 117.565 26.8818 117.476 26.9324C117.4 26.9957 117.236 27.3753 117.134 27.7928C117.021 28.2104 116.831 28.6912 116.692 28.8683C116.565 29.0455 116.274 29.2986 116.034 29.4377C115.642 29.6655 115.376 29.6908 113.39 29.6908H111.176V22.7316C114.807 22.6683 116.299 22.7189 116.831 22.7948C117.375 22.8581 117.995 23.0099 118.197 23.1112C118.4 23.2124 118.703 23.4908 118.855 23.7185C119.019 23.9336 119.26 24.4651 119.412 24.8826C119.576 25.3634 119.791 25.7051 119.981 25.8189C120.171 25.9202 120.424 25.9581 120.626 25.9075C120.828 25.8696 121.044 25.7051 121.119 25.5532C121.208 25.3887 121.322 24.2753 121.372 23.0859C121.436 21.8838 121.461 20.8083 121.423 20.7071C121.385 20.6058 121.233 20.492 121.081 20.454ZM84.862 47.5191C84.3307 47.3799 83.4704 47.2913 82.0156 47.266C80.4469 47.2281 79.7005 47.266 79.0426 47.4179C78.5493 47.5317 77.8155 47.7595 77.398 47.924C76.9805 48.1011 76.2974 48.4554 75.8799 48.7085C75.4624 48.9616 74.754 49.5183 74.3112 49.9358C73.8684 50.3534 73.2612 51.0367 72.9576 51.4542C72.6666 51.8718 72.2238 52.6436 71.9835 53.1624C71.7431 53.6812 71.4395 54.5416 71.313 55.0604C71.1359 55.7689 71.0726 56.4522 71.0853 57.7808C71.0853 59.451 71.1105 59.6282 71.5154 60.8176C71.7684 61.5514 72.1985 62.4498 72.5401 62.9686C72.8564 63.4621 73.5395 64.2592 74.0582 64.74C74.754 65.398 75.3486 65.8029 76.3227 66.2964C77.0565 66.6633 78.1065 67.0809 78.6631 67.2327C79.4854 67.4478 80.0294 67.4984 81.5728 67.4984C83.268 67.4984 83.597 67.4605 84.609 67.1568C85.2416 66.967 86.1145 66.6127 86.5699 66.3596C87.0253 66.1192 87.7085 65.6764 88.088 65.3727C88.4675 65.0817 89.0495 64.5376 89.3658 64.158C89.6947 63.7784 90.1501 63.1584 90.3905 62.7788C90.6308 62.3992 90.9471 61.8298 91.0863 61.5135C91.2381 61.1971 91.4785 60.5139 91.6429 59.9951C91.9086 59.1726 91.9465 58.793 91.9465 57.0849C91.9465 55.3767 91.9086 54.9971 91.6556 54.1746C91.4911 53.6559 91.1622 52.8587 90.9218 52.4032C90.6814 51.9477 90.2387 51.2518 89.9224 50.8595C89.6061 50.4546 88.9736 49.8093 88.5055 49.4171C88.0248 49.0248 87.1898 48.4807 86.6332 48.215C86.0765 47.9493 85.2795 47.6456 84.862 47.5191ZM77.98 50.0624C78.2203 49.8473 78.6631 49.5562 78.9794 49.3918C79.2957 49.2399 79.8017 49.0628 80.118 48.9995C80.4342 48.9362 81.0035 48.9109 81.3831 48.9489C81.7626 48.9869 82.3572 49.126 82.7114 49.2526C83.1289 49.4044 83.6602 49.7714 84.2928 50.3534C84.9253 50.9354 85.444 51.5681 85.8235 52.2261C86.1524 52.7828 86.5573 53.6559 86.7344 54.1746C86.9115 54.6934 87.1519 55.6677 87.2784 56.3257C87.4302 57.1987 87.4681 57.9073 87.4175 58.9196C87.3796 59.6788 87.2278 60.7416 87.1012 61.2604C86.9621 61.7792 86.7091 62.5004 86.532 62.8421C86.3675 63.1963 85.9374 63.7784 85.6084 64.158C85.2036 64.5882 84.6976 64.9678 84.1662 65.2335C83.4198 65.5878 83.2427 65.6257 82.1421 65.6257C81.2059 65.6257 80.7758 65.5625 80.1812 65.3347C79.7637 65.1829 79.0806 64.7906 78.6758 64.449C78.2583 64.12 77.7143 63.538 77.4486 63.1584C77.183 62.7788 76.7908 62.0323 76.5884 61.5135C76.3733 60.9947 76.1076 60.1975 76.0064 59.742C75.8926 59.2865 75.7787 58.2616 75.7281 57.4645C75.6902 56.5787 75.7155 55.5538 75.8167 54.8706C75.8926 54.2379 76.1203 53.3016 76.3101 52.7828C76.4998 52.264 76.854 51.5175 77.1071 51.1379C77.3601 50.7583 77.7523 50.2648 77.98 50.0624ZM104.724 47.4052C104.079 47.304 102.864 47.2154 101.941 47.2281C100.777 47.2281 100.03 47.2913 99.4105 47.4558C98.9172 47.5824 98.272 47.8228 97.9557 47.9746C97.6394 48.1264 97.1081 48.4681 96.7665 48.7211C96.4123 48.9742 95.881 49.5183 95.5773 49.9358C95.2611 50.3787 94.9195 51.0367 94.7803 51.5175C94.6412 51.973 94.54 52.6563 94.54 53.0359C94.54 53.4155 94.6285 54.0481 94.7424 54.4277C94.8562 54.8073 95.0839 55.3261 95.2358 55.5665C95.3876 55.8069 95.7418 56.2245 96.0075 56.5028C96.2858 56.7685 96.7918 57.1734 97.1334 57.4012C97.475 57.6163 98.7654 58.3122 99.9798 58.9322C101.523 59.7167 102.358 60.2355 102.776 60.6278C103.143 60.982 103.408 61.3869 103.509 61.7033C103.585 61.9816 103.649 62.4625 103.649 62.7788C103.649 63.0951 103.547 63.5759 103.421 63.8543C103.294 64.1327 102.991 64.5123 102.75 64.6894C102.51 64.8792 102.055 65.1196 101.713 65.2335C101.384 65.3474 100.739 65.436 100.258 65.436C99.7901 65.436 99.1828 65.3727 98.9045 65.2968C98.6262 65.2208 98.1455 65.0057 97.8292 64.8033C97.5129 64.6008 97.0448 64.1706 96.7792 63.829C96.5135 63.5 96.1846 62.8547 96.0328 62.3992C95.8936 61.9437 95.7038 61.5008 95.6279 61.4123C95.552 61.3237 95.3117 61.2478 95.1092 61.2478C94.9068 61.2478 94.6412 61.349 94.54 61.4629C94.3882 61.64 94.3502 62.1714 94.3122 64.1959C94.2869 66.6886 94.2869 66.7013 94.5653 66.8405C94.7297 66.9164 95.5394 67.0935 96.3743 67.2327C97.3232 67.3972 98.5376 67.4984 99.6003 67.4984C100.853 67.5111 101.561 67.4478 102.257 67.2833C102.776 67.1568 103.598 66.8658 104.091 66.638C104.585 66.3976 105.306 65.9168 105.698 65.5372C106.103 65.1702 106.634 64.5249 106.875 64.1074C107.14 63.6645 107.406 62.9559 107.52 62.3992C107.659 61.7792 107.71 61.1845 107.659 60.691C107.621 60.2735 107.494 59.6788 107.381 59.3624C107.279 59.0461 106.976 58.4894 106.71 58.1098C106.457 57.7428 105.875 57.1481 105.42 56.8192C104.964 56.4775 103.636 55.7057 102.447 55.111C101.258 54.5036 100.081 53.8836 99.8154 53.7191C99.5624 53.5546 99.1702 53.1751 98.9678 52.884C98.7527 52.5804 98.5503 52.1122 98.5123 51.8338C98.4744 51.5554 98.5123 51.0746 98.5882 50.7583C98.6894 50.3914 98.9298 50.0118 99.2714 49.6701C99.6003 49.3285 99.9925 49.0881 100.359 48.9869C100.676 48.8983 101.27 48.8603 101.688 48.8856C102.206 48.9236 102.674 49.0628 103.143 49.3158C103.522 49.5183 104.003 49.9105 104.218 50.1889C104.433 50.4673 104.711 50.9861 104.838 51.3277C104.952 51.682 105.129 52.0995 105.217 52.2767C105.331 52.5297 105.47 52.6057 105.862 52.631C106.141 52.6436 106.444 52.593 106.533 52.5044C106.647 52.3779 106.697 51.8212 106.685 50.3787C106.685 49.3032 106.634 48.2909 106.584 48.1264C106.533 47.9746 106.356 47.7848 106.179 47.7215C106.002 47.6583 105.356 47.5191 104.724 47.4052ZM112.504 47.595C111.568 47.5317 110.505 47.4305 110.151 47.3926C109.67 47.3419 109.468 47.3673 109.329 47.5064C109.215 47.633 109.114 48.1771 109.051 49.0122C108.987 49.7334 108.861 50.6697 108.76 51.1126C108.658 51.5428 108.582 52.0363 108.582 52.2134C108.582 52.3906 108.658 52.5677 108.734 52.6183C108.823 52.6563 109.076 52.6942 109.304 52.7069C109.573 52.7153 109.772 52.6352 109.898 52.4665C109.999 52.3273 110.202 51.8971 110.341 51.5175C110.493 51.1379 110.796 50.6444 111.011 50.4167C111.239 50.2016 111.606 49.9485 111.808 49.8599C112.023 49.7713 113.01 49.6954 114.111 49.6701L116.046 49.6195C115.983 63.5886 115.958 64.5376 115.781 64.8033C115.654 65.0057 115.363 65.1829 115.022 65.2715C114.718 65.3474 114.212 65.4613 113.908 65.5245C113.542 65.5878 113.263 65.7396 113.111 65.9421C112.934 66.1825 112.896 66.3343 112.985 66.5747C113.048 66.7519 113.213 66.9417 113.339 66.9923C113.466 67.0429 114.63 67.0302 115.92 66.9417C117.767 66.8278 118.741 66.8278 120.537 66.9543C122.22 67.0682 122.891 67.0682 123.093 66.967C123.257 66.8911 123.422 66.7013 123.46 66.5494C123.498 66.3849 123.46 66.1066 123.397 65.9168C123.283 65.6131 123.169 65.5498 122.65 65.4992C122.439 65.4748 122.181 65.44 121.97 65.4115C121.852 65.3957 121.749 65.3817 121.676 65.3727C121.474 65.3347 121.157 65.1702 120.98 64.9804C120.677 64.6768 120.664 64.5629 120.575 62.6776C120.537 61.5894 120.487 59.3245 120.487 57.6543C120.474 55.984 120.512 53.4787 120.563 52.0995L120.664 49.5816C123.637 49.6954 124.497 49.784 124.776 49.8979C125.016 49.9991 125.345 50.2522 125.509 50.4546C125.674 50.6571 125.889 51.1379 126.003 51.5175C126.104 51.8971 126.243 52.302 126.294 52.4032C126.344 52.5044 126.597 52.6057 126.876 52.631C127.23 52.6689 127.42 52.6057 127.559 52.4538C127.698 52.302 127.799 51.6314 127.913 50.075C128.027 48.4934 128.027 47.8228 127.926 47.595C127.799 47.2913 127.761 47.2787 127.015 47.3799C126.585 47.4432 125.32 47.5317 124.206 47.595C123.093 47.6583 120.386 47.7089 118.197 47.7215C116.008 47.7215 113.44 47.6583 112.504 47.595ZM65.6327 47.9999L64.6207 47.6709C54.171 47.6456 53.1084 47.6709 52.9565 47.8228C52.8553 47.9113 52.7794 48.1138 52.7794 48.2656C52.7921 48.4175 52.8806 48.6705 52.9818 48.835C53.121 49.0375 53.3361 49.1387 53.8295 49.1893C54.1963 49.2273 54.6265 49.3411 54.7783 49.4424C54.9427 49.5436 55.1198 49.8346 55.1958 50.1003C55.2717 50.3787 55.3223 53.2889 55.3223 57.4392C55.3223 63.2596 55.297 64.3604 55.1325 64.74C55.0313 64.9804 54.9048 65.2082 54.8415 65.2335C54.7909 65.2715 54.4367 65.36 54.0572 65.436C53.6776 65.5119 53.2349 65.6511 53.0704 65.7523C52.8849 65.8788 52.7921 66.0686 52.7921 66.3217C52.7921 66.5368 52.8933 66.7898 53.0071 66.9037C53.1969 67.0809 53.3993 67.1062 54.0572 67.0429C54.5126 66.9923 55.6132 66.9164 56.5241 66.8784C57.4476 66.8278 59.0543 66.8531 60.1928 66.9417C61.964 67.0682 62.2549 67.0682 62.4953 66.8911C62.6851 66.7772 62.7863 66.5747 62.7863 66.3596C62.7863 66.1572 62.7357 65.9294 62.6851 65.8535C62.6345 65.7649 62.3941 65.6384 62.1537 65.5625C61.9134 65.4992 61.5338 65.436 61.3314 65.436C61.1164 65.436 60.7621 65.3727 60.5218 65.2841C60.2181 65.1702 60.0284 64.9931 59.9145 64.7147C59.8007 64.4237 59.7501 63.5759 59.7501 61.8298V59.3624C62.9381 59.2865 63.8742 59.1979 64.3676 59.0588C64.7851 58.9449 65.5189 58.6539 66.0122 58.4261C66.5056 58.1984 67.2267 57.7049 67.6442 57.3253C68.1629 56.8445 68.5171 56.3636 68.846 55.7057C69.3015 54.7567 69.3015 54.744 69.3015 53.1119C69.3015 51.5935 69.2762 51.391 68.9725 50.7583C68.7954 50.3787 68.4539 49.8346 68.2135 49.5689C67.9731 49.2905 67.5303 48.9109 67.2141 48.7085C66.8978 48.506 66.1894 48.1897 65.6327 47.9999ZM59.8133 57.4012L59.8007 53.4787C59.788 51.3277 59.8007 49.4803 59.8386 49.3791C59.8892 49.2399 60.1802 49.2146 61.382 49.2779C62.5839 49.3411 62.9507 49.4044 63.4188 49.6448C63.7857 49.8346 64.1399 50.1763 64.4056 50.5685C64.6333 50.9228 64.8863 51.4036 64.9496 51.644C65.0255 51.8844 65.114 52.5171 65.152 53.0359C65.2026 53.6938 65.152 54.2253 65.0128 54.782C64.899 55.2122 64.6839 55.7563 64.5194 55.9967C64.3676 56.2371 64.0134 56.6041 63.7351 56.8192C63.3977 57.0722 62.9212 57.2662 62.3055 57.4012C61.673 57.5277 61.1543 57.5657 59.8133 57.4012ZM33.4363 21.7067C33.0567 21.7952 32.5127 21.9724 32.2344 22.0989C31.9561 22.2381 31.4374 22.6304 31.0958 22.9846C30.7416 23.3389 30.2482 24.0475 29.9826 24.5663C29.7296 25.0851 29.388 25.9708 29.2488 26.5275C29.0717 27.2234 28.9579 28.1092 28.9199 29.3745C28.8693 30.5386 28.9072 31.6014 29.0085 32.2847C29.0844 32.8794 29.2741 33.7904 29.4133 34.3092C29.5524 34.828 29.8308 35.6631 30.0458 36.1439C30.2482 36.6374 30.6657 37.3713 30.9567 37.7888C31.2603 38.2064 31.7537 38.7631 32.0573 39.0288C32.3609 39.2946 33.0441 39.7248 33.5628 39.9778C34.4863 40.4333 34.5495 40.446 35.9664 40.446C37.2568 40.446 37.4972 40.408 38.1171 40.1297C38.4966 39.9399 39.0406 39.6362 39.3063 39.4337C39.5719 39.2186 40.0527 38.6872 40.3816 38.2317C40.7485 37.7003 41.0774 37.017 41.2924 36.3337C41.4822 35.739 41.7099 34.6888 41.7858 33.9929C41.8744 33.2463 41.8997 32.2341 41.8491 31.5255C41.8111 30.8676 41.6846 29.8933 41.5708 29.3745C41.4696 28.8557 41.2418 27.9953 41.0647 27.4765C40.8876 26.9577 40.5081 26.072 40.2171 25.5153C39.8503 24.8067 39.4201 24.2247 38.7496 23.554C38.0791 22.8834 37.5478 22.4785 36.9406 22.1875C36.4725 21.9724 35.7387 21.732 35.3086 21.6561C34.8658 21.5928 34.423 21.5295 34.3218 21.5422C34.2206 21.5422 33.8158 21.6181 33.4363 21.7067Z" fill="white"/>
<path d="M28.8061 3.18247C28.9073 2.72695 29.1476 1.94246 29.3374 1.42368L29.7043 0.5L29.7928 2.1196C29.8561 3.28369 29.97 4.10615 30.2103 4.95391C30.3874 5.61187 30.8176 6.72535 31.1591 7.42127C31.5007 8.1172 32.2092 9.43312 32.7531 10.3315C33.2845 11.2425 33.9297 12.4066 34.17 12.9254C34.4104 13.4442 34.714 14.216 34.8405 14.6336C34.967 15.0511 35.0936 15.6079 35.1315 15.8736C35.1948 16.2911 35.2327 16.3291 35.4604 16.2152C35.5996 16.1393 36.0044 15.6711 36.3586 15.1777C36.7129 14.6715 37.2063 13.8617 37.4466 13.3683C37.6996 12.8874 38.193 11.5715 38.5599 10.458C38.9141 9.34455 39.4708 7.88944 39.7744 7.23148C40.0907 6.57351 40.5967 5.63718 40.913 5.14371C41.2292 4.66289 41.7985 3.89104 42.1907 3.43553C42.5702 2.98002 43.2407 2.32205 43.6961 1.96777C44.1389 1.62613 44.5944 1.2845 44.6956 1.22123C44.8221 1.14531 44.7715 1.2845 44.5817 1.60082C44.4172 1.87919 44.0883 2.44859 43.8606 2.86614C43.6329 3.28369 43.266 4.16941 43.0383 4.82738C42.8232 5.48534 42.5576 6.45963 42.4564 6.97841C42.3552 7.49719 42.2286 9.15475 42.1654 10.6478C42.0895 12.5838 41.9756 13.7478 41.7859 14.6968C41.6341 15.4307 41.3178 16.5062 41.0774 17.1009L41.0601 17.1462C40.8402 17.7205 40.6606 18.1894 40.6852 18.2018C40.6979 18.2271 41.0268 18.1511 41.4063 18.0373C41.7859 17.9234 42.5323 17.6197 43.051 17.3413C43.5696 17.0756 44.3793 16.5315 44.8474 16.1266C45.3155 15.7217 46.3149 14.8234 47.0613 14.1401C47.8077 13.4568 48.8577 12.5964 49.3764 12.2548C49.8951 11.9005 50.8439 11.3691 51.4638 11.0654C52.0837 10.7744 53.1464 10.3948 53.8042 10.2303C54.462 10.0531 55.3982 9.88864 56.7771 9.76211L56.3091 10.0531C56.0434 10.205 55.4741 10.5339 55.044 10.7744C54.5379 11.0527 53.7156 11.736 52.7795 12.6723C51.5397 13.8997 51.0843 14.4691 49.8192 16.405C48.9969 17.6577 47.9974 19.0748 47.6053 19.5683C47.2131 20.0618 46.5173 20.783 46.0745 21.1879C45.6317 21.5928 45.113 22.023 44.9106 22.1369C44.7209 22.2508 44.5691 22.39 44.5691 22.4532C44.5691 22.5038 44.898 22.5797 45.3028 22.643C45.695 22.6936 46.9095 22.7316 47.9848 22.7316C49.0601 22.7189 50.3758 22.6683 51.8433 22.5165L52.2228 22.9214C52.5897 23.301 52.6024 23.3516 52.6656 26.0847L52.1975 26.2871C51.9319 26.401 51.1475 26.6794 50.4517 26.9198C49.7559 27.1602 48.6173 27.5018 47.9215 27.679C47.2257 27.8561 46.6311 27.9573 46.5932 27.9067C46.5552 27.8688 46.3528 27.3879 46.1504 26.8565C45.948 26.3251 45.5685 25.5532 45.3281 25.1357C45.0877 24.7181 44.2907 23.7691 43.557 23.0353C42.3172 21.7826 42.1274 21.6434 40.7738 20.9855C39.9768 20.5932 38.8635 20.1503 38.3069 19.9985C37.6237 19.8214 36.7508 19.7075 35.5869 19.6695C34.0435 19.6063 33.7399 19.6316 32.5254 19.9352C31.7664 20.1124 30.8049 20.4287 30.3748 20.6185C29.932 20.821 29.2109 21.2259 28.7555 21.5295C28.3 21.8459 27.5916 22.4153 27.1741 22.8075C26.7566 23.1998 26.1241 23.9336 25.7572 24.4524C25.403 24.9712 24.9096 25.819 24.6566 26.3377C24.4036 26.8565 24.0873 27.7422 23.9481 28.299C23.7963 28.8557 23.6445 29.9312 23.5939 30.6778C23.5054 32.0063 23.4927 32.0443 23.1891 32.1202C23.012 32.1582 22.3541 32.3227 21.7342 32.4872C21.1143 32.6517 20.5704 32.7908 20.5324 32.7908C20.4945 32.7908 20.4312 32.2974 20.3932 31.69C20.3426 31.0321 20.1782 30.2223 19.7101 28.8937L21.3547 28.2357C22.2656 27.8688 23.2523 27.4892 23.556 27.3626C23.8596 27.2488 24.1379 27.1096 24.1506 27.0337C24.1759 26.9577 24.0114 26.7932 23.7837 26.6414C23.5686 26.4896 22.8981 26.1732 22.3035 25.9328C21.7089 25.6924 20.8613 25.3634 20.4059 25.2243C19.9505 25.0724 18.989 24.8067 18.2552 24.6296C17.5215 24.4398 16.4462 24.1487 15.8516 23.9716C15.257 23.7945 14.5232 23.5287 14.207 23.3895C13.8907 23.2504 13.3214 22.934 12.9419 22.6936C12.5624 22.4532 11.8792 21.9344 11.4238 21.5548C10.9683 21.1752 10.3611 20.5932 10.0701 20.2516C9.76651 19.9099 9.52615 19.6063 9.52615 19.5683C9.52615 19.5303 9.76651 19.6189 10.0701 19.7454C10.3611 19.8846 11.1455 20.1377 11.8033 20.3148C12.4611 20.492 13.7389 20.7197 14.6497 20.821C15.5606 20.9222 17.4076 21.0361 18.7613 21.0867C20.1149 21.1246 21.8481 21.2132 22.6198 21.2891C23.3915 21.3524 24.4668 21.4916 25.0235 21.6055C25.5801 21.7067 26.0482 21.7826 26.0735 21.7573C26.0861 21.732 25.7699 21.2006 25.365 20.5806C24.9476 19.9605 24.0493 18.8471 23.3788 18.1132C22.6957 17.3793 21.7848 16.443 21.3421 16.0254C20.9119 15.6079 20.1908 14.874 19.7607 14.3805C19.3306 13.8997 18.7233 13.1025 18.4071 12.6091C18.0908 12.1282 17.6354 11.2931 17.395 10.7744C17.1546 10.2556 16.851 9.39516 16.7245 8.87639C16.5853 8.35761 16.4841 7.82617 16.4841 7.7123C16.4841 7.57311 16.6992 7.76291 17.0408 8.21842C17.3444 8.61067 18.1034 9.42047 18.7233 10.0152C19.3432 10.6099 20.2794 11.3817 20.7981 11.736C21.3041 12.0903 22.5059 12.8115 23.4421 13.3303C24.3783 13.8491 25.5548 14.5197 26.0355 14.8234C26.5163 15.1144 27.1994 15.5699 27.5536 15.823C27.8952 16.076 28.5784 16.6328 29.0717 17.063C29.9067 17.8095 29.9573 17.8348 30.0459 17.5691C30.0838 17.4173 30.1091 16.6328 30.0838 15.8356C30.0585 15.0385 29.9447 13.925 29.8434 13.3683C29.7422 12.8115 29.4766 11.6727 29.2742 10.8376C29.0591 10.0025 28.7934 8.63598 28.6796 7.80087C28.5404 6.77596 28.5025 5.91555 28.5531 5.14371C28.6037 4.5237 28.7175 3.63798 28.8061 3.18247Z" fill="white" fill-opacity="0.5"/>
<path d="M59.5097 22.9973C59.4085 22.9087 59.1555 22.6304 58.9404 22.3646L58.5483 21.8838L58.9278 21.9724C59.1302 22.0104 59.535 22.1116 59.8134 22.1748C60.0917 22.2508 60.5724 22.4406 60.8887 22.6051C61.1923 22.7695 61.5339 22.9593 61.6477 23.0226C61.7742 23.1112 61.4833 23.1491 60.7622 23.1365C60.1676 23.1365 59.5983 23.0732 59.5097 22.9973Z" fill="white" fill-opacity="0.5"/>
<path d="M46.6818 34.1068C46.8336 33.5753 46.8968 32.8288 46.8968 31.5635L46.9095 29.7667L47.289 29.9312C47.4914 30.0198 48.3517 30.3867 49.1866 30.7284C50.0216 31.0827 51.1096 31.5129 52.5391 31.9557V33.6386C52.5391 35.1443 52.5138 35.3088 52.3114 35.3088C52.1975 35.3088 50.8439 35.2202 49.3131 35.119C47.7824 35.0051 46.5173 34.9039 46.5046 34.8913C46.492 34.8786 46.5679 34.5243 46.6818 34.1068Z" fill="white" fill-opacity="0.5"/>
<path d="M11.4111 33.2211C11.8666 33.1325 12.4864 32.968 12.8027 32.8668C13.119 32.7655 13.4479 32.677 13.5365 32.677C13.625 32.6643 13.8021 32.8921 13.9413 33.1704C14.0805 33.4488 14.2323 33.917 14.3714 34.7521L13.0431 34.6635C12.322 34.6129 11.3858 34.499 10.9683 34.4358C10.5509 34.3598 9.80446 34.17 9.29843 34.0182C8.80505 33.8664 8.41287 33.7145 8.43817 33.6766C8.45082 33.6386 8.95686 33.5627 9.5388 33.5121C10.1207 33.4488 10.9557 33.3223 11.4111 33.2211Z" fill="white" fill-opacity="0.5"/>
<path d="M55.3096 35.7643V34.4611C55.3096 33.7525 55.3603 33.1704 55.4109 33.1704C55.4615 33.1704 55.8663 33.4488 56.3217 33.7904C56.7771 34.1321 57.5489 34.828 58.0422 35.3341C58.5356 35.8529 59.1429 36.6121 59.3959 37.0296C59.6489 37.4472 59.864 37.8268 59.864 37.8774C59.864 37.928 59.6869 37.8394 59.4591 37.675C59.2314 37.5105 58.6115 37.1435 58.0928 36.8652C57.5742 36.5994 56.7265 36.2325 55.3096 35.7643Z" fill="white" fill-opacity="0.5"/>
<path d="M21.7848 38.548C22.7084 36.8019 23.5686 35.2202 23.7204 35.0304L23.9734 34.6762L24.3656 35.6631C24.5807 36.2072 25.0867 37.1182 26.2126 38.7378L25.4789 39.7121C25.0741 40.2562 24.3024 41.1546 23.7837 41.7113C23.265 42.2681 22.3668 43.0905 21.7975 43.546C21.2282 44.0015 20.3047 44.6342 19.7227 44.9758C19.1535 45.3048 18.154 45.7477 17.4835 45.9501C16.8257 46.1399 16.0793 46.3424 15.8389 46.393C15.4215 46.4816 15.4468 46.4562 16.1552 45.9754C16.5727 45.7097 17.3697 45.0011 17.9263 44.4191C18.483 43.837 19.2041 42.9893 19.533 42.5338C19.8493 42.0783 20.8613 40.2815 21.7848 38.548Z" fill="white" fill-opacity="0.5"/>
<path d="M43.6329 39.206C44.2275 38.6366 44.8347 37.966 44.9739 37.7256L45.2396 37.2827L45.8595 37.9786C46.201 38.3582 46.8083 39.0668 47.2131 39.5603C47.6179 40.0411 48.2125 40.8382 48.5541 41.3317C48.883 41.8125 49.4017 42.7236 49.6927 43.3562C49.9963 43.9762 50.3632 44.9126 50.5023 45.444C50.6415 45.9754 50.7933 46.975 50.8312 47.7216C50.8565 48.4428 50.8565 48.9616 50.8186 48.8603C50.7806 48.7465 50.4897 48.1518 50.186 47.5318C49.8824 46.8991 49.3511 46.0134 49.0095 45.5705C48.6679 45.115 47.833 44.204 47.1372 43.546C46.454 42.8881 45.404 42.0403 44.8094 41.648C44.2022 41.2685 43.4558 40.7876 42.5449 40.2562L43.6329 39.206Z" fill="white" fill-opacity="0.5"/>
<path d="M28.1735 41.4836C28.0723 41.0154 27.9838 40.5472 27.9838 40.446C27.9838 40.3068 28.1609 40.3701 28.6543 40.6738C29.0211 40.9015 29.8055 41.3064 30.3874 41.5595C30.982 41.8125 31.564 42.015 31.6905 42.0276C31.8676 42.0276 31.9055 42.1415 31.9055 42.6856C31.9055 43.0525 31.8296 43.875 31.7158 44.5203C31.6146 45.1656 31.3869 46.1652 31.1971 46.7346C31.02 47.3167 30.6911 48.1518 30.4886 48.6073C30.2862 49.0501 29.8561 49.822 29.5272 50.3155C29.2109 50.7963 28.5404 51.6187 28.047 52.1249C27.5663 52.6436 27.0856 53.0992 26.9717 53.1624C26.8578 53.2257 26.9717 52.8967 27.2627 52.2893C27.5283 51.7579 27.8573 50.9481 27.9964 50.5053C28.1356 50.0497 28.338 49.164 28.4392 48.544C28.5404 47.9114 28.6163 46.7473 28.6163 45.9501C28.6163 45.1403 28.5657 44.0015 28.4898 43.4195C28.4265 42.8248 28.2747 41.9517 28.1735 41.4836Z" fill="white" fill-opacity="0.5"/>
<path d="M36.9026 42.3946C37.5352 42.3187 38.3575 42.1542 38.737 42.0276C39.1039 41.9138 39.4328 41.8252 39.4455 41.8252C39.4708 41.8252 39.6858 42.3946 39.9388 43.0652C40.1792 43.7485 40.4955 44.8746 40.6346 45.5705C40.7864 46.2791 40.8877 47.342 40.9003 47.9999C40.9003 48.6452 40.8117 49.6701 40.7105 50.2775C40.5967 50.8848 40.3816 51.7706 40.2172 52.2387C40.0527 52.7069 39.825 53.2636 39.7111 53.4787C39.5087 53.8583 39.5087 53.8583 39.5087 52.9094C39.4961 52.3779 39.4455 51.6187 39.3822 51.2012C39.3063 50.7836 39.1165 49.9359 38.9394 49.3285C38.7623 48.7212 38.3828 47.6963 38.1045 47.0509C37.8261 46.4056 37.1556 45.153 36.6243 44.2673C36.0803 43.3815 35.6755 42.6223 35.7008 42.597C35.7388 42.5591 36.2827 42.4705 36.9026 42.3946Z" fill="white" fill-opacity="0.5"/>
</svg>
