<svg width="128" height="67" viewBox="0 0 128 67" fill="none" xmlns="http://www.w3.org/2000/svg">
<path opacity="0.5" d="M33.3564 61.8813C34.1181 59.5798 34.6562 56.4842 34.4171 53.3533C34.1801 50.2246 32.3068 47.4481 32.2293 45.6711C32.1496 43.8941 31.5938 41.3586 31.5938 41.3586C30.976 42.6772 27.1231 49.3787 27.1231 49.3787C26.2993 51.1368 24.7781 52.4411 24.7781 52.4411C25.6638 50.123 26.4875 47.2638 27.0278 45.267C27.5659 43.2703 27.6921 41.0538 27.6921 41.0538C26.709 41.4602 22.9202 45.4017 21.0513 47.0275C19.3684 48.4878 16.0713 50.3853 13.6953 50.3853C13.4296 50.3853 13.1727 50.3617 12.9336 50.3121L10.903 49.4827C13.155 48.9061 16.2772 46.9779 17.4021 45.5908C18.5292 44.2013 20.4003 40.378 21.9216 39.076C23.4428 37.7716 24.0938 36.7224 24.0938 36.7224C21.3503 37.5022 18.8924 37.4171 16.9902 37.6723C16.7068 37.7102 16.4278 37.7243 16.1554 37.7243C14.6032 37.7243 13.3277 37.1974 13.3277 37.1974C14.674 36.6066 16.6249 35.6591 17.5925 35.1156C18.558 34.5744 19.7161 33.4567 20.9539 33.0172C22.1895 32.5777 23.3321 32.4241 23.3321 32.4241C21.5983 31.7719 19.9619 31.3891 18.2967 31.3891C17.6302 31.3891 16.9592 31.4505 16.275 31.5805C16.0846 31.616 15.8919 31.6325 15.6949 31.6325C13.4163 31.6325 10.7901 29.3616 9.88443 28.7213C8.90126 28.0289 7.71217 25.5761 7.64795 23.9338C8.77505 24.7467 9.75821 26.5402 11.8198 26.5402H11.8353C12.4553 26.5402 13.124 26.5709 13.8193 26.6017C14.5213 26.6324 15.2476 26.6631 15.9739 26.6631C16.9216 26.6631 17.8693 26.6111 18.7639 26.4362C21.0314 25.9967 24.2023 25.5737 24.2023 25.5737C23.0775 23.6621 21.0624 21.8686 19.9995 20.498C18.9366 19.1275 18.1129 17.5868 18.1129 17.5868C19.9353 18.8557 21.8706 19.9734 22.949 20.3775C24.0274 20.7839 26.4388 21.5614 26.8972 22.1876C27.2714 22.698 27.9335 22.8019 28.1682 22.8232C25.542 25.0563 24.0407 28.4377 24.457 31.9869C25.0681 37.1927 29.5898 40.9616 34.8887 40.9616C35.3847 40.9616 35.8852 40.9286 36.3901 40.86C42.3156 40.0708 46.576 34.8155 45.9073 29.123C45.2961 23.9173 40.7767 20.1483 35.4755 20.1483C34.9817 20.1483 34.4791 20.1814 33.9742 20.2499C31.782 20.5429 29.8201 21.4479 28.2501 22.7594C27.9889 20.6351 27.3024 19.2149 25.3582 16.7574C23.3919 14.2691 22.7409 10.9207 23.1705 9.07523C23.5978 7.23209 25.0084 3.88134 25.0084 3.88134C25.2453 5.91117 25.2143 7.83938 25.7391 9.00671C26.2617 10.174 26.6093 12.0526 30.1943 15.1482C30.1943 15.1482 32.0012 17.3812 33.1438 18.3288C33.7461 15.7744 34.8555 8.75386 34.9817 6.535C35.4888 9.76759 36.2661 13.0994 36.3768 14.047C36.4897 14.9969 37.3931 19.411 37.3931 19.411C38.4228 18.3122 39.7071 17.178 40.4689 13.7753C41.2284 10.3749 42.1318 7.09267 45.2563 5.16446C46.8506 4.17908 48.0618 3.92624 48.9166 3.92624C49.7359 3.92624 50.2297 4.15782 50.4245 4.19799C49.076 4.7911 46.8572 6.73586 46.1442 8.34506C45.4312 9.95191 44.3218 11.4761 44.2908 14.5031C44.2598 17.5324 43.9099 18.9526 43.3719 19.8505C44.386 19.7159 48.6021 17.2276 49.6805 16.5329C50.7589 15.8405 52.7407 15.1623 53.0906 14.841C52.0122 16.6345 47.1141 21.0013 47.1141 21.0013C46.3059 21.7953 45.8143 23.0997 45.8143 23.0997C46.2084 23.0453 46.5561 23.0264 46.8749 23.0264C47.2625 23.0264 47.6101 23.0548 47.9533 23.0831C48.2965 23.1091 48.6353 23.1375 49.0074 23.1375C49.6274 23.1375 50.3404 23.0595 51.3147 22.7759C53.3519 22.1828 55.7921 21.0368 58.0463 21.0368C58.6862 21.0368 59.3129 21.1289 59.9085 21.3534C62.6034 22.3695 63.777 23.5865 63.777 23.5865C62.9466 23.5628 62.1096 23.4707 61.2039 23.4707C60.2783 23.4707 59.2797 23.5652 58.1504 23.9267C55.9139 24.638 51.0623 27.2089 50.2695 28.14C49.4768 29.071 48.5246 29.7468 48.5246 29.7468C49.4923 30.3069 53.87 32.4714 55.3603 33.0976L56.8505 33.7214C54.0428 33.9601 46.3856 34.5697 46.3856 34.5697C45.894 34.7729 45.5618 35.229 46.9414 36.0088C48.3209 36.7862 54.9174 40.3047 55.7412 42.9442C56.5671 45.5837 56.6623 49.6953 56.6623 49.6953C55.8851 47.4623 54.2841 44.7897 52.0941 43.7051C49.9064 42.6228 47.2115 40.5103 45.15 40.5103C43.0884 40.5103 42.1208 39.9503 42.1208 39.9503C42.9622 41.6257 43.3431 43.776 43.58 44.707C43.8192 45.6357 45.1522 50.4089 45.1522 50.4089C43.7727 49.6292 38.8568 45.0615 38.1571 42.4054C38.1571 42.4054 37.836 42.2849 37.5371 42.2849C37.2249 42.2849 36.9348 42.4173 37.0632 42.9631C37.3179 44.0312 38.9365 49.0384 38.6974 51.4061C38.4605 53.7762 37.2249 57.5145 35.4335 59.8161C34.6717 61.0189 33.3564 61.8813 33.3564 61.8813Z" fill="#9D1E39"/>
<path fill-rule="evenodd" clip-rule="evenodd" d="M13.2581 10.1478C12.6256 10.0845 11.6641 10.0339 11.1075 10.0339C10.5508 10.0466 9.69057 10.0972 9.20984 10.1605C8.7291 10.2237 7.83089 10.4135 7.22365 10.5907C6.60375 10.7678 5.64229 11.1348 5.073 11.4131C4.49106 11.7042 3.66875 12.2103 3.23862 12.5519C2.79584 12.9062 2.1886 13.5136 1.87233 13.9185C1.55606 14.3107 1.12593 14.9813 0.923514 15.3989C0.7211 15.8164 0.468082 16.525 0.366875 16.9805C0.253017 17.436 0.164461 18.2838 0.164461 18.8785C0.164461 19.4732 0.227716 20.2956 0.303621 20.7132C0.366875 21.1307 0.670496 21.9532 0.961466 22.5479C1.35364 23.3577 1.70787 23.8512 2.37836 24.5091C2.8591 25.0026 3.74466 25.7112 4.33925 26.0655C4.93384 26.4324 6.35074 27.1916 7.50197 27.7483C8.6532 28.3051 10.108 29.0643 10.7279 29.4186C11.3605 29.7855 12.2081 30.3929 12.6256 30.7851C13.119 31.2533 13.5238 31.772 13.7768 32.3035C14.0045 32.7463 14.2449 33.4549 14.3334 33.8725C14.4599 34.5178 14.4599 34.7582 14.2702 35.4541C14.1563 35.9096 13.916 36.5296 13.7262 36.8333C13.5364 37.1496 13.1569 37.5925 12.8786 37.8203C12.6003 38.048 12.1322 38.3517 11.8412 38.4909C11.5376 38.6301 11.0569 38.7945 10.7659 38.8705C10.4623 38.9337 9.71587 38.997 9.08333 38.997C8.43813 38.997 7.61582 38.9084 7.18569 38.7945C6.76822 38.6933 6.14832 38.4656 5.7941 38.3011C5.45253 38.1366 4.85793 37.7317 4.47841 37.39C4.09888 37.0611 3.64345 36.5549 3.44104 36.2766C3.25127 35.9982 2.9603 35.4035 2.78319 34.948C2.61873 34.4925 2.42897 33.7839 2.37836 33.3663C2.32776 32.9488 2.20125 32.4174 2.08739 32.1896C1.94823 31.9365 1.72052 31.7214 1.4928 31.6455C1.29039 31.5822 0.974117 31.5569 0.797005 31.5949C0.619893 31.6329 0.379526 31.7594 0.253017 31.8733C0.0506035 32.0884 0.0253017 32.4427 0.0126509 36.2133L0 40.3256C0.468082 40.6546 1.26509 40.895 2.06209 41.0721C2.8591 41.2493 4.06093 41.477 4.71877 41.5782C5.37662 41.6795 6.57845 41.7933 7.37546 41.844C8.27367 41.8946 9.33634 41.8693 10.1587 41.7807C10.8924 41.7048 11.9551 41.4897 12.537 41.3252C13.1063 41.1607 13.9286 40.857 14.3714 40.6672C14.8015 40.4774 15.6112 39.9966 16.1552 39.6297C16.6992 39.2501 17.5341 38.5288 17.9895 38.0354C18.445 37.5545 19.0396 36.7574 19.2926 36.2639C19.5456 35.7831 19.8366 35.1378 19.9504 34.8215C20.0516 34.5051 20.2034 33.8598 20.292 33.3663C20.3806 32.8602 20.4059 31.9618 20.3679 31.2786C20.33 30.5194 20.2034 29.7982 20.039 29.3173C19.8872 28.8998 19.5076 28.1659 19.204 27.6724C18.9004 27.179 18.2299 26.3818 17.7239 25.8757C17.2178 25.3822 16.2817 24.6483 15.6618 24.2561C15.0292 23.8512 13.6376 23.1046 12.5623 22.5859C11.487 22.0671 10.1966 21.4344 9.71587 21.194C9.23514 20.941 8.51404 20.5234 8.13451 20.2703C7.75498 20.0173 7.19835 19.5238 6.89472 19.1822C6.5658 18.8026 6.27483 18.3091 6.16097 17.9295C6.05977 17.5879 5.98386 17.0311 5.98386 16.7021C5.98386 16.3605 6.11037 15.7658 6.26218 15.3736C6.43929 14.8801 6.74291 14.4246 7.17304 13.9944C7.60317 13.5768 8.07126 13.2478 8.57729 13.058C9.20984 12.805 9.56406 12.7544 10.7912 12.7544C12.0436 12.7417 12.3599 12.7797 13.0684 13.058C13.6376 13.2731 14.1184 13.5895 14.6371 14.0703C15.0419 14.4499 15.5226 15.0572 15.6871 15.3989C15.8642 15.7532 16.1172 16.4617 16.2437 16.9805C16.3955 17.6385 16.56 18.0054 16.7624 18.1573C16.9269 18.2838 17.2431 18.385 17.4709 18.3724C17.7112 18.3724 18.0148 18.2458 18.2299 18.0687L18.5715 17.765C18.5209 13.8299 18.445 12.6531 18.3438 12.3242C18.2046 11.818 18.116 11.7421 17.2431 11.2866C16.7245 11.0209 15.8642 10.6792 15.3455 10.5401C14.8268 10.4009 13.8907 10.2237 13.2581 10.1478ZM38.3068 19.4985C37.5604 19.296 36.814 19.2201 35.4604 19.1822C33.8284 19.1442 33.4995 19.1695 32.3862 19.4479C31.7157 19.625 30.8049 19.9287 30.3747 20.1185C29.932 20.3209 29.2109 20.7258 28.7554 21.0295C28.3 21.3459 27.5916 21.9152 27.1741 22.3075C26.7566 22.6997 26.1241 23.4336 25.7572 23.9524C25.403 24.4712 24.9096 25.3189 24.6565 25.8377C24.4035 26.3565 24.0873 27.2422 23.9354 27.799C23.7077 28.6341 23.6571 29.1528 23.6571 30.7092C23.6571 32.0504 23.7204 32.8855 23.8722 33.5561C23.9861 34.0749 24.2391 34.8721 24.4288 35.3276C24.6312 35.7831 25.0361 36.517 25.3397 36.9725C25.6433 37.428 26.2379 38.1492 26.6554 38.5921C27.0855 39.035 27.8572 39.6676 28.3759 39.9966C28.8946 40.3256 29.8055 40.8064 30.4 41.0595C30.9946 41.2999 31.9308 41.6035 32.4874 41.7301C33.1832 41.8819 34.0435 41.9452 35.2706 41.9452C36.3713 41.9452 37.3707 41.8693 37.9273 41.7554C38.4207 41.6542 39.0406 41.4644 39.3189 41.3505C39.5229 41.2578 40.0054 41.0291 40.5225 40.7841C40.711 40.6948 40.9041 40.6033 41.09 40.5154C42.0894 40.0219 42.5955 39.6803 43.481 38.8452C44.1009 38.2631 44.8726 37.4027 45.2016 36.9092C45.5178 36.4158 45.9606 35.5933 46.1757 35.0745C46.3907 34.5557 46.6564 33.6827 46.7703 33.1512C46.8841 32.6072 46.9727 31.6329 46.9727 31.0002C46.9727 30.3549 46.8715 29.2288 46.7323 28.4949C46.6058 27.761 46.3022 26.7108 46.0745 26.154C45.8468 25.5973 45.3913 24.7495 45.0624 24.2561C44.7335 23.7626 43.9491 22.8769 43.3166 22.2695C42.3298 21.3205 41.9629 21.0548 40.7485 20.4601C39.9641 20.0805 38.8635 19.6503 38.3068 19.4985ZM74.8426 20.1565L74.6148 19.8528C68.087 19.8275 66.5689 19.8781 66.4171 19.954C66.2779 20.0299 66.1387 20.2324 66.1134 20.3969C66.0755 20.574 66.0882 20.8271 66.1134 20.9663C66.1514 21.1054 66.3412 21.2826 66.5436 21.3712C66.7333 21.4471 67.2394 21.5989 67.6569 21.6875C68.1123 21.7761 68.5677 21.9785 68.7828 22.1683L69.1497 22.4846C69.3141 26.1161 69.3521 28.7226 69.3394 30.6333L69.3015 34.0876C68.1437 32.7409 67.2368 31.682 66.5187 30.8436C65.8402 30.0513 65.3303 29.4559 64.9369 29.001C64.3373 28.3076 63.5781 27.406 62.9985 26.7176C62.7954 26.4764 62.6144 26.2615 62.47 26.0908C61.9134 25.4328 61.2808 24.6863 61.0658 24.4459C60.838 24.2055 60.2181 23.4589 59.6868 22.801C59.1555 22.143 58.4344 21.2446 58.0928 20.8144C57.7512 20.3716 57.3717 19.992 57.2452 19.9667C57.1313 19.9414 55.3855 19.9287 53.3614 19.9414L49.7053 19.954C49.427 20.4475 49.3764 20.7258 49.4143 20.903C49.4523 21.0928 49.6294 21.2826 49.8444 21.3712C50.0342 21.4597 50.3758 21.561 50.5782 21.6116C50.7806 21.6622 51.1854 21.8014 51.4637 21.9152C51.7421 22.0418 52.1089 22.2948 52.286 22.4846L52.6023 22.8263C52.6023 33.1512 52.5644 36.6688 52.5264 37.2888C52.4758 37.9088 52.362 38.6047 52.2607 38.8072C52.1469 39.0096 51.8939 39.2627 51.7041 39.3513C51.5017 39.4525 51.021 39.579 50.6414 39.6423C50.1481 39.7182 49.8571 39.8448 49.6547 40.0725C49.5029 40.2497 49.3764 40.4648 49.3764 40.5533C49.3637 40.6292 49.4649 40.8444 49.5914 40.9962L49.8191 41.2999C58.0548 41.2999 58.3079 41.2872 58.4597 41.0721C58.5482 40.9329 58.6115 40.6799 58.6115 40.4901C58.6115 40.2876 58.5229 40.0472 58.4217 39.946C58.3205 39.8448 58.1308 39.7309 58.0042 39.7056C57.8904 39.6676 57.4476 39.579 57.0301 39.5031C56.6126 39.4272 56.1446 39.288 55.9801 39.1868C55.8283 39.0856 55.6132 38.7945 55.512 38.5541C55.3476 38.1745 55.3223 37.1117 55.3223 31.6582C55.3223 28.1026 55.3602 25.2051 55.4108 25.2051C55.4741 25.2051 56.056 25.8377 56.7139 26.6222C57.3717 27.4067 59.4464 29.8361 61.3314 32.0378C62.8102 33.7551 64.437 35.6671 65.4237 36.8268C65.6947 37.1453 65.9174 37.4071 66.0755 37.5925C66.5863 38.2003 67.2688 39.0105 67.8412 39.69C68.0911 39.9866 68.32 40.2583 68.5045 40.4774C69.39 41.5023 69.7063 41.7933 70.0226 41.8566C70.2503 41.8946 70.6551 41.8946 70.9081 41.8566C71.2118 41.806 71.4521 41.6795 71.566 41.5023C71.7051 41.2619 71.7557 39.6297 71.819 32.4806C71.8696 27.6851 71.9455 23.4336 71.9835 23.054C72.0341 22.6744 72.1606 22.2569 72.2744 22.1303C72.3883 22.0038 72.8564 21.8393 73.4763 21.7254C74.0455 21.6116 74.5769 21.4344 74.7034 21.3079C74.8173 21.194 74.9564 20.9536 74.9944 20.7765C75.045 20.5656 74.9944 20.3589 74.8426 20.1565ZM83.597 19.954C83.4578 19.916 81.9017 19.8781 80.1306 19.8654C77.6511 19.8401 76.8667 19.8654 76.6643 19.992C76.4872 20.1058 76.4239 20.283 76.4366 20.5993C76.4366 20.8397 76.5504 21.1307 76.6643 21.2573C76.7908 21.3712 77.3221 21.5736 77.8408 21.6875C78.4228 21.8267 78.8908 22.0165 79.0426 22.181C79.2957 22.4467 79.2957 22.6238 79.2957 30.3169C79.2957 36.2639 79.2577 38.2884 79.1312 38.6554C79.0426 38.9464 78.8529 39.1868 78.6252 39.3007C78.4354 39.3892 77.9926 39.5284 77.651 39.617C77.2968 39.6929 76.8667 39.8701 76.6643 40.0092C76.4745 40.1484 76.3227 40.3888 76.3227 40.5533C76.3227 40.7052 76.3986 40.9456 76.4998 41.0848C76.6643 41.3252 76.8161 41.3378 80.7758 41.3378C84.2548 41.3378 84.9253 41.3125 85.1024 41.148C85.2289 41.0342 85.3175 40.7684 85.3175 40.5154C85.3175 40.275 85.2416 39.9966 85.153 39.9207C85.0645 39.8321 84.5584 39.6676 84.0397 39.5664C83.521 39.4525 82.9518 39.2627 82.7747 39.1362C82.5975 39.0096 82.3825 38.6933 82.2813 38.4149C82.1548 38.0354 82.1042 36.479 82.0536 31.6582C81.9903 25.4455 81.9903 25.3949 82.2307 25.6479C82.3698 25.7871 83.5843 27.2043 84.938 28.7986C86.2916 30.3929 88.2525 32.7084 89.2898 33.9357C90.3399 35.1631 92.0477 37.1876 93.0851 38.4276C94.1351 39.6676 95.1852 40.9076 95.4255 41.186C95.6659 41.4517 96.0707 41.7301 96.3111 41.806C96.5514 41.8819 96.9689 41.9072 97.2346 41.8566C97.4876 41.8186 97.8039 41.6795 97.9304 41.5656C98.1455 41.3505 98.1708 40.9203 98.2467 35.7072C98.2973 32.6072 98.3732 28.5075 98.4111 26.5969C98.4491 24.6863 98.5376 22.9022 98.6009 22.6491C98.6894 22.2822 98.816 22.1303 99.1322 21.9912C99.3473 21.8899 99.828 21.7634 100.17 21.7128C100.524 21.6495 100.929 21.5103 101.093 21.3838C101.283 21.2193 101.371 21.0169 101.371 20.6879C101.384 20.3842 101.296 20.1311 101.169 20.0173C100.992 19.8528 100.334 19.8275 96.893 19.8401C94.6538 19.8528 92.7562 19.8907 92.6676 19.9414C92.5917 19.9793 92.4652 20.1438 92.402 20.3083C92.3387 20.4601 92.3134 20.7258 92.364 20.8903C92.4146 21.0548 92.5917 21.2573 92.7688 21.3459C92.9459 21.4344 93.3128 21.5483 93.5911 21.5989C93.8695 21.6495 94.3628 21.7634 94.6918 21.8646C95.1599 22.0038 95.3496 22.143 95.5141 22.4593C95.7165 22.8136 95.7418 23.421 95.7797 27.9255C95.805 30.7092 95.805 33.2398 95.7797 33.5435L95.7418 34.1002C93.8821 31.8733 92.8321 30.6206 92.1995 29.8867C91.7921 29.414 91.201 28.7103 90.6459 28.0496C90.3392 27.6845 90.0435 27.3325 89.7959 27.0398C89.0998 26.217 87.847 24.7362 87.0127 23.7626C86.7558 23.459 86.4774 23.1314 86.202 22.8074C85.5825 22.0785 84.9788 21.3683 84.6723 20.9916C84.2169 20.4475 83.7361 19.9793 83.597 19.954ZM121.081 19.954C120.917 19.916 116.894 19.8781 112.137 19.8528C105.192 19.8275 103.434 19.8654 103.231 19.992C103.054 20.1058 102.991 20.283 103.003 20.5993C103.003 20.8397 103.105 21.1181 103.206 21.2193C103.307 21.3205 103.611 21.4597 103.876 21.5356C104.129 21.5989 104.597 21.7128 104.914 21.7761C105.23 21.852 105.609 22.0038 105.774 22.105C105.926 22.2063 106.09 22.4467 106.153 22.6491C106.204 22.8389 106.242 26.5083 106.242 30.7978V38.5921C105.749 39.1235 105.483 39.326 105.331 39.3892C105.167 39.4525 104.686 39.5664 104.256 39.6297C103.813 39.7056 103.358 39.8574 103.231 39.9839C103.105 40.0978 103.003 40.3762 103.003 40.5786C103.003 40.7937 103.079 41.0342 103.168 41.1227C103.294 41.2493 105.217 41.2872 112.492 41.3125C121.524 41.3378 121.651 41.3378 121.815 41.0848C121.904 40.9456 122.132 39.7815 122.309 38.4909C122.6 36.3651 122.612 36.1247 122.435 35.8717C122.283 35.6313 122.144 35.5806 121.651 35.6186L121.069 35.6439C120.36 37.0484 120.019 37.6051 119.842 37.7949C119.665 37.9847 119.298 38.2631 119.019 38.4276C118.741 38.5921 118.058 38.8198 117.501 38.9337C116.945 39.0476 115.743 39.1741 114.845 39.2121C113.82 39.2501 112.922 39.2248 112.479 39.1362C111.922 39.035 111.682 38.9084 111.492 38.6554C111.239 38.3137 111.226 38.1239 111.239 34.8594V31.4051C113.782 31.4051 114.832 31.4684 115.199 31.5443C115.667 31.6582 115.983 31.8227 116.312 32.1516C116.641 32.468 116.843 32.8349 116.995 33.3663C117.109 33.7839 117.299 34.2015 117.413 34.29C117.539 34.3786 117.805 34.4419 118.007 34.4419C118.222 34.4545 118.475 34.3533 118.577 34.2268C118.741 34.037 118.766 33.3917 118.766 30.2031V26.4071C117.881 26.3565 117.565 26.3818 117.476 26.4324C117.4 26.4957 117.236 26.8753 117.134 27.2928C117.021 27.7104 116.831 28.1912 116.692 28.3683C116.565 28.5455 116.274 28.7986 116.034 28.9377C115.642 29.1655 115.376 29.1908 113.39 29.1908H111.176V22.2316C114.807 22.1683 116.299 22.2189 116.831 22.2948C117.375 22.3581 117.995 22.5099 118.197 22.6112C118.4 22.7124 118.703 22.9908 118.855 23.2185C119.019 23.4336 119.26 23.9651 119.412 24.3826C119.576 24.8634 119.791 25.2051 119.981 25.3189C120.171 25.4202 120.424 25.4581 120.626 25.4075C120.828 25.3696 121.044 25.2051 121.119 25.0532C121.208 24.8887 121.322 23.7753 121.372 22.5859C121.436 21.3838 121.461 20.3083 121.423 20.2071C121.385 20.1058 121.233 19.992 121.081 19.954ZM84.862 47.0191C84.3307 46.8799 83.4704 46.7913 82.0156 46.766C80.4469 46.7281 79.7005 46.766 79.0426 46.9179C78.5493 47.0317 77.8155 47.2595 77.398 47.424C76.9805 47.6011 76.2974 47.9554 75.8799 48.2085C75.4624 48.4616 74.754 49.0183 74.3112 49.4358C73.8684 49.8534 73.2612 50.5367 72.9576 50.9542C72.6666 51.3718 72.2238 52.1436 71.9835 52.6624C71.7431 53.1812 71.4395 54.0416 71.313 54.5604C71.1359 55.2689 71.0726 55.9522 71.0853 57.2808C71.0853 58.951 71.1105 59.1282 71.5154 60.3176C71.7684 61.0514 72.1985 61.9498 72.5401 62.4686C72.8564 62.9621 73.5395 63.7592 74.0582 64.24C74.754 64.898 75.3486 65.3029 76.3227 65.7964C77.0565 66.1633 78.1065 66.5809 78.6631 66.7327C79.4854 66.9478 80.0294 66.9984 81.5728 66.9984C83.268 66.9984 83.597 66.9605 84.609 66.6568C85.2416 66.467 86.1145 66.1127 86.5699 65.8596C87.0253 65.6192 87.7085 65.1764 88.088 64.8727C88.4675 64.5817 89.0495 64.0376 89.3658 63.658C89.6947 63.2784 90.1501 62.6584 90.3905 62.2788C90.6308 61.8992 90.9471 61.3298 91.0863 61.0135C91.2381 60.6971 91.4785 60.0139 91.6429 59.4951C91.9086 58.6726 91.9465 58.293 91.9465 56.5849C91.9465 54.8767 91.9086 54.4971 91.6556 53.6746C91.4911 53.1559 91.1622 52.3587 90.9218 51.9032C90.6814 51.4477 90.2387 50.7518 89.9224 50.3595C89.6061 49.9546 88.9736 49.3093 88.5055 48.9171C88.0248 48.5248 87.1898 47.9807 86.6332 47.715C86.0765 47.4493 85.2795 47.1456 84.862 47.0191ZM77.98 49.5624C78.2203 49.3473 78.6631 49.0562 78.9794 48.8918C79.2957 48.7399 79.8017 48.5628 80.118 48.4995C80.4342 48.4362 81.0035 48.4109 81.3831 48.4489C81.7626 48.4869 82.3572 48.626 82.7114 48.7526C83.1289 48.9044 83.6602 49.2714 84.2928 49.8534C84.9253 50.4354 85.444 51.0681 85.8235 51.7261C86.1524 52.2828 86.5573 53.1559 86.7344 53.6746C86.9115 54.1934 87.1519 55.1677 87.2784 55.8257C87.4302 56.6987 87.4681 57.4073 87.4175 58.4196C87.3796 59.1788 87.2278 60.2416 87.1012 60.7604C86.9621 61.2792 86.7091 62.0004 86.532 62.3421C86.3675 62.6963 85.9374 63.2784 85.6084 63.658C85.2036 64.0882 84.6976 64.4678 84.1662 64.7335C83.4198 65.0878 83.2427 65.1257 82.1421 65.1257C81.2059 65.1257 80.7758 65.0625 80.1812 64.8347C79.7637 64.6829 79.0806 64.2906 78.6758 63.949C78.2583 63.62 77.7143 63.038 77.4486 62.6584C77.183 62.2788 76.7908 61.5323 76.5884 61.0135C76.3733 60.4947 76.1076 59.6975 76.0064 59.242C75.8926 58.7865 75.7787 57.7616 75.7281 56.9645C75.6902 56.0787 75.7155 55.0538 75.8167 54.3706C75.8926 53.7379 76.1203 52.8016 76.3101 52.2828C76.4998 51.764 76.854 51.0175 77.1071 50.6379C77.3601 50.2583 77.7523 49.7648 77.98 49.5624ZM104.724 46.9052C104.079 46.804 102.864 46.7154 101.941 46.7281C100.777 46.7281 100.03 46.7913 99.4105 46.9558C98.9172 47.0824 98.272 47.3228 97.9557 47.4746C97.6394 47.6264 97.1081 47.9681 96.7665 48.2211C96.4123 48.4742 95.881 49.0183 95.5773 49.4358C95.2611 49.8787 94.9195 50.5367 94.7803 51.0175C94.6412 51.473 94.54 52.1563 94.54 52.5359C94.54 52.9155 94.6285 53.5481 94.7424 53.9277C94.8562 54.3073 95.0839 54.8261 95.2358 55.0665C95.3876 55.3069 95.7418 55.7245 96.0075 56.0028C96.2858 56.2685 96.7918 56.6734 97.1334 56.9012C97.475 57.1163 98.7654 57.8122 99.9798 58.4322C101.523 59.2167 102.358 59.7355 102.776 60.1278C103.143 60.482 103.408 60.8869 103.509 61.2033C103.585 61.4816 103.649 61.9625 103.649 62.2788C103.649 62.5951 103.547 63.0759 103.421 63.3543C103.294 63.6327 102.991 64.0123 102.75 64.1894C102.51 64.3792 102.055 64.6196 101.713 64.7335C101.384 64.8474 100.739 64.936 100.258 64.936C99.7901 64.936 99.1828 64.8727 98.9045 64.7968C98.6262 64.7208 98.1455 64.5057 97.8292 64.3033C97.5129 64.1008 97.0448 63.6706 96.7792 63.329C96.5135 63 96.1846 62.3547 96.0328 61.8992C95.8936 61.4437 95.7038 61.0008 95.6279 60.9123C95.552 60.8237 95.3117 60.7478 95.1092 60.7478C94.9068 60.7478 94.6412 60.849 94.54 60.9629C94.3882 61.14 94.3502 61.6714 94.3122 63.6959C94.2869 66.1886 94.2869 66.2013 94.5653 66.3405C94.7297 66.4164 95.5394 66.5935 96.3743 66.7327C97.3232 66.8972 98.5376 66.9984 99.6003 66.9984C100.853 67.0111 101.561 66.9478 102.257 66.7833C102.776 66.6568 103.598 66.3658 104.091 66.138C104.585 65.8976 105.306 65.4168 105.698 65.0372C106.103 64.6702 106.634 64.0249 106.875 63.6074C107.14 63.1645 107.406 62.4559 107.52 61.8992C107.659 61.2792 107.71 60.6845 107.659 60.191C107.621 59.7735 107.494 59.1788 107.381 58.8624C107.279 58.5461 106.976 57.9894 106.71 57.6098C106.457 57.2428 105.875 56.6481 105.42 56.3192C104.964 55.9775 103.636 55.2057 102.447 54.611C101.258 54.0036 100.081 53.3836 99.8154 53.2191C99.5624 53.0546 99.1702 52.6751 98.9678 52.384C98.7527 52.0804 98.5503 51.6122 98.5123 51.3338C98.4744 51.0554 98.5123 50.5746 98.5882 50.2583C98.6894 49.8914 98.9298 49.5118 99.2714 49.1701C99.6003 48.8285 99.9925 48.5881 100.359 48.4869C100.676 48.3983 101.27 48.3603 101.688 48.3856C102.206 48.4236 102.674 48.5628 103.143 48.8158C103.522 49.0183 104.003 49.4105 104.218 49.6889C104.433 49.9673 104.711 50.4861 104.838 50.8277C104.952 51.182 105.129 51.5995 105.217 51.7767C105.331 52.0297 105.47 52.1057 105.862 52.131C106.141 52.1436 106.444 52.093 106.533 52.0044C106.647 51.8779 106.697 51.3212 106.685 49.8787C106.685 48.8032 106.634 47.7909 106.584 47.6264C106.533 47.4746 106.356 47.2848 106.179 47.2215C106.002 47.1583 105.356 47.0191 104.724 46.9052ZM112.504 47.095C111.568 47.0317 110.505 46.9305 110.151 46.8926C109.67 46.8419 109.468 46.8673 109.329 47.0064C109.215 47.133 109.114 47.6771 109.051 48.5122C108.987 49.2334 108.861 50.1697 108.76 50.6126C108.658 51.0428 108.582 51.5363 108.582 51.7134C108.582 51.8906 108.658 52.0677 108.734 52.1183C108.823 52.1563 109.076 52.1942 109.304 52.2069C109.573 52.2153 109.772 52.1352 109.898 51.9665C109.999 51.8273 110.202 51.3971 110.341 51.0175C110.493 50.6379 110.796 50.1444 111.011 49.9167C111.239 49.7016 111.606 49.4485 111.808 49.3599C112.023 49.2713 113.01 49.1954 114.111 49.1701L116.046 49.1195C115.983 63.0886 115.958 64.0376 115.781 64.3033C115.654 64.5057 115.363 64.6829 115.022 64.7715C114.718 64.8474 114.212 64.9613 113.908 65.0245C113.542 65.0878 113.263 65.2396 113.111 65.4421C112.934 65.6825 112.896 65.8343 112.985 66.0747C113.048 66.2519 113.213 66.4417 113.339 66.4923C113.466 66.5429 114.63 66.5302 115.92 66.4417C117.767 66.3278 118.741 66.3278 120.537 66.4543C122.22 66.5682 122.891 66.5682 123.093 66.467C123.257 66.3911 123.422 66.2013 123.46 66.0494C123.498 65.8849 123.46 65.6066 123.397 65.4168C123.283 65.1131 123.169 65.0498 122.65 64.9992C122.439 64.9748 122.181 64.94 121.97 64.9115C121.852 64.8957 121.749 64.8817 121.676 64.8727C121.474 64.8347 121.157 64.6702 120.98 64.4804C120.677 64.1768 120.664 64.0629 120.575 62.1776C120.537 61.0894 120.487 58.8245 120.487 57.1543C120.474 55.484 120.512 52.9787 120.563 51.5995L120.664 49.0816C123.637 49.1954 124.497 49.284 124.776 49.3979C125.016 49.4991 125.345 49.7522 125.509 49.9546C125.674 50.1571 125.889 50.6379 126.003 51.0175C126.104 51.3971 126.243 51.802 126.294 51.9032C126.344 52.0044 126.597 52.1057 126.876 52.131C127.23 52.1689 127.42 52.1057 127.559 51.9538C127.698 51.802 127.799 51.1314 127.913 49.575C128.027 47.9934 128.027 47.3228 127.926 47.095C127.799 46.7913 127.761 46.7787 127.015 46.8799C126.585 46.9432 125.32 47.0317 124.206 47.095C123.093 47.1583 120.386 47.2089 118.197 47.2215C116.008 47.2215 113.44 47.1583 112.504 47.095ZM65.6327 47.4999L64.6207 47.1709C54.171 47.1456 53.1084 47.1709 52.9565 47.3228C52.8553 47.4113 52.7794 47.6138 52.7794 47.7656C52.7921 47.9175 52.8806 48.1705 52.9818 48.335C53.121 48.5375 53.3361 48.6387 53.8295 48.6893C54.1963 48.7273 54.6265 48.8411 54.7783 48.9424C54.9427 49.0436 55.1198 49.3346 55.1958 49.6003C55.2717 49.8787 55.3223 52.7889 55.3223 56.9392C55.3223 62.7596 55.297 63.8604 55.1325 64.24C55.0313 64.4804 54.9048 64.7082 54.8415 64.7335C54.7909 64.7715 54.4367 64.86 54.0572 64.936C53.6776 65.0119 53.2349 65.1511 53.0704 65.2523C52.8849 65.3788 52.7921 65.5686 52.7921 65.8217C52.7921 66.0368 52.8933 66.2898 53.0071 66.4037C53.1969 66.5809 53.3993 66.6062 54.0572 66.5429C54.5126 66.4923 55.6132 66.4164 56.5241 66.3784C57.4476 66.3278 59.0543 66.3531 60.1928 66.4417C61.964 66.5682 62.2549 66.5682 62.4953 66.3911C62.6851 66.2772 62.7863 66.0747 62.7863 65.8596C62.7863 65.6572 62.7357 65.4294 62.6851 65.3535C62.6345 65.2649 62.3941 65.1384 62.1537 65.0625C61.9134 64.9992 61.5338 64.936 61.3314 64.936C61.1164 64.936 60.7621 64.8727 60.5218 64.7841C60.2181 64.6702 60.0284 64.4931 59.9145 64.2147C59.8007 63.9237 59.7501 63.0759 59.7501 61.3298V58.8624C62.9381 58.7865 63.8742 58.6979 64.3676 58.5588C64.7851 58.4449 65.5189 58.1539 66.0122 57.9261C66.5056 57.6984 67.2267 57.2049 67.6442 56.8253C68.1629 56.3445 68.5171 55.8636 68.846 55.2057C69.3015 54.2567 69.3015 54.244 69.3015 52.6119C69.3015 51.0935 69.2762 50.891 68.9725 50.2583C68.7954 49.8787 68.4539 49.3346 68.2135 49.0689C67.9731 48.7905 67.5303 48.4109 67.2141 48.2085C66.8978 48.006 66.1894 47.6897 65.6327 47.4999ZM59.8133 56.9012L59.8007 52.9787C59.788 50.8277 59.8007 48.9803 59.8386 48.8791C59.8892 48.7399 60.1802 48.7146 61.382 48.7779C62.5839 48.8411 62.9507 48.9044 63.4188 49.1448C63.7857 49.3346 64.1399 49.6763 64.4056 50.0685C64.6333 50.4228 64.8863 50.9036 64.9496 51.144C65.0255 51.3844 65.114 52.0171 65.152 52.5359C65.2026 53.1938 65.152 53.7253 65.0128 54.282C64.899 54.7122 64.6839 55.2563 64.5194 55.4967C64.3676 55.7371 64.0134 56.1041 63.7351 56.3192C63.3977 56.5722 62.9212 56.7662 62.3055 56.9012C61.673 57.0277 61.1543 57.0657 59.8133 56.9012ZM33.4363 21.2067C33.0567 21.2952 32.5127 21.4724 32.2344 21.5989C31.9561 21.7381 31.4374 22.1304 31.0958 22.4846C30.7416 22.8389 30.2482 23.5475 29.9826 24.0663C29.7296 24.5851 29.388 25.4708 29.2488 26.0275C29.0717 26.7234 28.9579 27.6092 28.9199 28.8745C28.8693 30.0386 28.9072 31.1014 29.0085 31.7847C29.0844 32.3794 29.2741 33.2904 29.4133 33.8092C29.5524 34.328 29.8308 35.1631 30.0458 35.6439C30.2482 36.1374 30.6657 36.8713 30.9567 37.2888C31.2603 37.7064 31.7537 38.2631 32.0573 38.5288C32.3609 38.7946 33.0441 39.2248 33.5628 39.4778C34.4863 39.9333 34.5495 39.946 35.9664 39.946C37.2568 39.946 37.4972 39.908 38.1171 39.6297C38.4966 39.4399 39.0406 39.1362 39.3063 38.9337C39.5719 38.7186 40.0527 38.1872 40.3816 37.7317C40.7485 37.2003 41.0774 36.517 41.2924 35.8337C41.4822 35.239 41.7099 34.1888 41.7858 33.4929C41.8744 32.7463 41.8997 31.7341 41.8491 31.0255C41.8111 30.3676 41.6846 29.3933 41.5708 28.8745C41.4696 28.3557 41.2418 27.4953 41.0647 26.9765C40.8876 26.4577 40.5081 25.572 40.2171 25.0153C39.8503 24.3067 39.4201 23.7247 38.7496 23.054C38.0791 22.3834 37.5478 21.9785 36.9406 21.6875C36.4725 21.4724 35.7387 21.232 35.3086 21.1561C34.8658 21.0928 34.423 21.0295 34.3218 21.0422C34.2206 21.0422 33.8158 21.1181 33.4363 21.2067Z" fill="#9D1E39"/>
</svg>
